<svg width="377" height="241" xmlns="http://www.w3.org/2000/svg"><defs><filter x="-61.6%" y="-4271.8%" width="223.2%" height="8643.7%" filterUnits="objectBoundingBox" id="a"><feGaussianBlur stdDeviation="30.809" in="SourceGraphic"/></filter></defs><g fill="none" fill-rule="evenodd"><path d="M94.619 125.493c155.162 0 95.441 2.477 179.306-1.885" stroke="#D0FFB4" stroke-width="36" filter="url(#a)"/><path d="M107.553 113.19C121 62 197.188 58.297 217.61 56.948M109.5 141c27.5 27 88.321 42.892 122.925 44.306" stroke="#7F7F7F" stroke-width="2" stroke-linecap="round" stroke-dasharray="5,5"/><path d="M232.299 59.946c0 .165-.049.272-.145.323a.75.75 0 0 1-.35.075c-.121 0-.241-.01-.36-.027a1.162 1.162 0 0 1-.332-.102.836.836 0 0 1-.269-.204.72.72 0 0 1-.155-.333c-.1-.43-.158-.85-.172-1.262a36.64 36.64 0 0 1-.022-1.273V55.82c0-.601.025-1.226.075-1.874.05-.648.104-1.273.161-1.875a.33.33 0 0 1 .011-.075.294.294 0 0 0 .011-.064c.007-.08.018-.165.032-.258a1.04 1.04 0 0 1 .07-.253.489.489 0 0 1 .14-.188.368.368 0 0 1 .241-.075c.115 0 .224.023.328.07a.964.964 0 0 1 .274.183.83.83 0 0 1 .188.274.83.83 0 0 1 .07.333 8.322 8.322 0 0 1-.043.816 1.432 1.432 0 0 1-.022.236c.1-.2.215-.41.344-.628.129-.219.278-.42.446-.602.168-.182.354-.33.558-.445a1.37 1.37 0 0 1 .683-.172c.207 0 .38.032.515.096a.818.818 0 0 1 .328.274 1.1 1.1 0 0 1 .172.414c.032.157.048.326.048.505 0 .243-.007.488-.021.736-.015.247-.03.492-.043.735-.022.251-.04.498-.054.742-.014.243-.022.49-.022.74 0 .302.008.611.022.93a17.125 17.125 0 0 0 .161 1.697c.036.233.072.414.107.543.03.107.06.23.092.37l.096.43c.033.147.06.288.081.424.021.136.032.258.032.366 0 .157-.062.257-.188.3a1.138 1.138 0 0 1-.37.065c-.122 0-.26-.01-.414-.027a1.163 1.163 0 0 1-.414-.124.749.749 0 0 1-.295-.45 3.616 3.616 0 0 1-.091-.57l-.032-.29-.086-.677a29.176 29.176 0 0 1-.183-1.971 17.849 17.849 0 0 1-.032-1.058c0-.308.012-.605.037-.892.025-.286.052-.576.08-.87.015-.15.026-.272.033-.365.007-.093.018-.215.032-.365a7.48 7.48 0 0 0-.43.805c-.143.308-.279.629-.408.962-.128.333-.245.657-.349.972-.104.315-.184.59-.241.827l-.065.236c-.036.115-.066.23-.091.344a1.512 1.512 0 0 0-.038.322c0 .13.007.278.022.446.014.168.032.328.053.478a16.65 16.65 0 0 0 .097.688 8.139 8.139 0 0 1 .08.618c.011.118.017.223.017.316zm8.647-.086c0 .144-.036.242-.107.296a.492.492 0 0 1-.3.08c-.338 0-.58-.09-.726-.268a1.762 1.762 0 0 1-.328-.71l-.064-.305a5.005 5.005 0 0 1-.054-.307 1.008 1.008 0 0 0-.043-.193 1.039 1.039 0 0 1-.043-.204 6.321 6.321 0 0 1-.317.65c-.125.226-.27.433-.435.623-.164.19-.349.346-.553.467a1.286 1.286 0 0 1-.671.183c-.258 0-.473-.063-.645-.188a1.317 1.317 0 0 1-.403-.473 2.236 2.236 0 0 1-.204-.628 3.82 3.82 0 0 1-.059-.655c0-.487.048-1.016.145-1.585a14.676 14.676 0 0 1 1.005-3.351c.229-.527.48-.987.752-1.38v.01l.064-.097a7.66 7.66 0 0 1 .274-.349.468.468 0 0 1 .37-.188c.137 0 .255.06.355.177.1.118.172.242.215.37.186.037.336.082.451.135.115.054.204.12.269.199.064.079.107.17.128.274.022.104.033.217.033.338v.161c0 .058-.004.115-.011.172-.007.058-.01.126-.01.204v.215c0 .072.012.165.037.28l.08.354.076.397c.035.208.066.444.09.71.026.264.056.53.092.794.029.272.057.536.086.79.029.254.057.489.086.704l.258 1.59.032.182c.014.093.03.179.048.258.018.079.027.168.027.268zm-2.46-6.176a.368.368 0 0 0-.01-.07 4.905 4.905 0 0 1-.022-.102c-.165.35-.31.732-.435 1.144a13.074 13.074 0 0 0-.494 2.535c-.04.426-.06.829-.06 1.208v.097c0 .029.004.057.012.086v.01c.171-.264.32-.613.445-1.047.126-.433.231-.888.317-1.364a15.422 15.422 0 0 0 .247-2.497zm4.92 6.262c0 .165-.048.272-.145.323a.75.75 0 0 1-.349.075c-.122 0-.242-.01-.36-.027a1.161 1.161 0 0 1-.333-.102.836.836 0 0 1-.268-.204.72.72 0 0 1-.156-.333c-.1-.43-.158-.85-.172-1.262a36.64 36.64 0 0 1-.021-1.273V55.82c0-.601.025-1.226.075-1.874.05-.648.104-1.273.16-1.875 0-.021.004-.046.012-.075a.294.294 0 0 0 .01-.064c.008-.08.018-.165.033-.258a1.04 1.04 0 0 1 .07-.253.489.489 0 0 1 .14-.188.368.368 0 0 1 .24-.075c.115 0 .225.023.328.07a.964.964 0 0 1 .274.183.83.83 0 0 1 .188.274.83.83 0 0 1 .07.333c0 .143-.005.291-.016.445a11.287 11.287 0 0 1-.064.672l-.017.247c.086-.15.185-.303.296-.457.11-.154.234-.29.37-.408a1.93 1.93 0 0 1 .446-.29c.161-.075.335-.113.521-.113s.34.03.462.092c.122.06.219.143.29.247a.985.985 0 0 1 .15.37c.03.143.044.294.044.451a7.555 7.555 0 0 1-.022.57 7.462 7.462 0 0 0-.005 1.09c.01.168.023.346.037.532.072-.237.16-.505.264-.806a11.735 11.735 0 0 1 .827-1.853c.168-.304.35-.575.548-.81.196-.237.41-.429.639-.576a1.32 1.32 0 0 1 .72-.22c.393 0 .67.115.832.344.161.23.242.523.242.88a4.931 4.931 0 0 1-.043.635 27.224 27.224 0 0 0-.107 2.385v.203c0 .502.02.974.064 1.418.043.444.129.913.257 1.408l.086.29c.03.1.063.21.102.333.04.121.074.24.103.354a9.8 9.8 0 0 1 .075.322c.021.1.032.18.032.237 0 .15-.054.25-.161.3a.78.78 0 0 1-.333.076 5.81 5.81 0 0 1-.247-.006 1.734 1.734 0 0 1-.274-.032 1.269 1.269 0 0 1-.258-.08.55.55 0 0 1-.199-.14v.01a.562.562 0 0 1-.14-.236 1.965 1.965 0 0 1-.064-.279l-.021-.097c-.1-.386-.185-.734-.253-1.042a11.392 11.392 0 0 1-.258-1.88 22.31 22.31 0 0 1-.026-1.138c0-.365.016-.738.048-1.117.032-.38.066-.752.102-1.118a1.632 1.632 0 0 1 .021-.247c-.272.423-.51.887-.714 1.391a18.494 18.494 0 0 0-.548 1.553c-.16.53-.3 1.061-.419 1.595a59.15 59.15 0 0 0-.317 1.52c0 .007.017.048.049.123.032.076.064.162.096.258.033.097.063.19.092.28.028.09.043.148.043.177 0 .165-.054.265-.161.3a1.046 1.046 0 0 1-.333.054c-.086 0-.18-.003-.28-.01a1.384 1.384 0 0 1-.564-.167.53.53 0 0 1-.198-.199c-.043-.071-.094-.241-.15-.51a28.927 28.927 0 0 1-.366-2.11l-.161-1.182c-.05-.373-.09-.699-.118-.978a6.798 6.798 0 0 1-.043-.57v-.16a9.685 9.685 0 0 0-.57 1.59c-.15.565-.265 1.12-.343 1.664l-.043.194a1.51 1.51 0 0 0-.043.322c0 .079.009.176.027.29.017.115.04.24.07.376.035.186.066.378.09.575.026.197.038.392.038.585zm11.774-1.912c0 .215-.06.437-.178.666-.118.23-.27.439-.456.629s-.4.345-.64.467c-.24.122-.477.183-.714.183-.336 0-.626-.067-.87-.2a2.062 2.062 0 0 1-.634-.536 2.928 2.928 0 0 1-.435-.768 5.74 5.74 0 0 1-.263-.887 7.293 7.293 0 0 1-.134-.913 10.215 10.215 0 0 1-.038-.832 9.135 9.135 0 0 1 .167-1.676 6.63 6.63 0 0 1 .252-.935 3.7 3.7 0 0 1 .403-.827c.161-.243.355-.44.58-.59.226-.15.485-.226.779-.226.23 0 .435.046.618.14.182.093.336.216.462.37a1.7 1.7 0 0 1 .29.532c.068.2.102.408.102.623 0 .28-.065.584-.194.913-.129.33-.295.648-.5.956a5.033 5.033 0 0 1-.687.833 3.215 3.215 0 0 1-.757.564c.014.128.043.316.086.563.043.248.102.493.177.736.075.244.165.455.269.634.104.18.227.269.37.269a.292.292 0 0 0 .188-.065.635.635 0 0 0 .145-.172c.043-.071.08-.15.113-.236.032-.086.063-.168.091-.247l.065-.15a.525.525 0 0 0 .027-.043l.016-.033c.05-.093.098-.179.145-.257a.634.634 0 0 1 .199-.205h-.011a.153.153 0 0 1 .091-.048.55.55 0 0 1 .35.07c.092.05.178.113.257.188.079.075.143.157.193.247a.54.54 0 0 1 .076.263zm-2.127-4.737c0-.072-.004-.147-.011-.226a.569.569 0 0 0-.054-.204c-.1.122-.188.267-.263.435a3.669 3.669 0 0 0-.188.527 6.483 6.483 0 0 0-.193 1.069c.186-.223.35-.475.494-.758.143-.283.215-.564.215-.843zm6.252-1.171a.28.28 0 0 1-.092.215.811.811 0 0 1-.22.145.983.983 0 0 1-.263.08 1.112 1.112 0 0 1-.467-.005 5.695 5.695 0 0 1-.237-.059 10.981 10.981 0 0 0-.225-.06 1.014 1.014 0 0 0-.548.027 1.014 1.014 0 0 0-.29.151.78.78 0 0 0-.21.236.612.612 0 0 0-.08.312c0 .172.036.342.107.51.072.169.167.339.285.51.118.172.254.346.408.521.154.176.317.353.489.532l.628.698c.212.237.401.484.57.742.168.257.306.53.413.816.108.287.161.587.161.902 0 .273-.044.516-.134.73a1.566 1.566 0 0 1-.956.898 2.13 2.13 0 0 1-.736.123c-.071 0-.18-.014-.327-.043a5.911 5.911 0 0 1-.5-.123 16.98 16.98 0 0 1-.575-.177 4.81 4.81 0 0 1-.537-.21 2.45 2.45 0 0 1-.397-.225c-.104-.076-.156-.145-.156-.21 0-.086.04-.174.118-.263.079-.09.172-.172.28-.247.107-.075.22-.138.338-.188a.792.792 0 0 1 .295-.075c.108 0 .22.025.339.075.118.05.238.107.36.172.136.071.273.136.413.193.14.057.285.086.435.086.115 0 .181-.04.199-.118.018-.079.027-.168.027-.269 0-.25-.043-.488-.13-.714a3.687 3.687 0 0 0-.332-.66 5.058 5.058 0 0 0-.473-.63 92.268 92.268 0 0 0-.537-.606c-.186-.2-.367-.401-.542-.602a5.283 5.283 0 0 1-.468-.617 3.354 3.354 0 0 1-.327-.65 2.022 2.022 0 0 1-.124-.71c0-.307.068-.585.204-.832.136-.247.314-.46.532-.639a2.4 2.4 0 0 1 .741-.413 2.5 2.5 0 0 1 .833-.145 3.567 3.567 0 0 1 .999.226c.186.07.35.157.494.257.143.1.215.211.215.333zm2.449 5.081c0 .344-.002.659-.005.945-.004.287.001.602.016.946l.193-.14.118-.075c.351-.28.657-.621.919-1.026.261-.405.478-.836.65-1.294a8.228 8.228 0 0 0 .5-3.153 2.781 2.781 0 0 0-.05-.457 1.44 1.44 0 0 0-.128-.392c-.057-.111-.14-.166-.247-.166-.172 0-.348.103-.527.311a4.114 4.114 0 0 0-.5.741 12.48 12.48 0 0 0-.688 1.558c-.002 0-.004.003-.004.01v.011c-.043.1-.088.208-.134.323a1.382 1.382 0 0 0-.092.322 4.11 4.11 0 0 0-.032.338 6.88 6.88 0 0 0-.005.602c.003.068.005.13.005.188 0 .079.002.152.006.22.003.068.005.13.005.188zm.59 9.818c0 .158-.042.265-.128.323a.61.61 0 0 1-.344.086 2.29 2.29 0 0 1-.57-.081.935.935 0 0 1-.493-.295c-.036-.05-.07-.197-.102-.44a19.865 19.865 0 0 1-.092-.855 39.11 39.11 0 0 1-.075-1.01 48.795 48.795 0 0 0-.064-.918l-.043-.57a82.104 82.104 0 0 1-.13-4.597c0-.895.017-1.774.05-2.637a570.8 570.8 0 0 1 .101-2.627l.043-1.128c0-.114.002-.227.005-.338.004-.111.017-.22.038-.328a.623.623 0 0 1 .134-.22c.054-.054.142-.08.264-.08.307 0 .533.09.676.273.143.183.226.407.247.672.23-.315.503-.566.822-.752.319-.186.686-.28 1.101-.28.351 0 .647.08.886.237.24.158.432.36.575.607.143.247.245.523.306.827.061.304.092.603.092.897 0 .566-.05 1.13-.15 1.692a8.27 8.27 0 0 1-.468 1.633 7.683 7.683 0 0 1-.8 1.493 6.2 6.2 0 0 1-1.343 1.412 2.928 2.928 0 0 1-.247.162c-.086.05-.174.093-.263.129a.66.66 0 0 1-.242.053.377.377 0 0 1-.204-.053.651.651 0 0 1-.15-.13 84.145 84.145 0 0 0 .15 3.132c.036.533.08 1.062.134 1.584.054.523.12 1.028.199 1.515.021.093.041.192.059.295.018.104.027.21.027.317zm8.509-7.165c0 .144-.036.242-.108.296a.492.492 0 0 1-.3.08c-.337 0-.579-.09-.726-.268a1.762 1.762 0 0 1-.327-.71l-.065-.305a5.005 5.005 0 0 1-.054-.307 1.008 1.008 0 0 0-.043-.193 1.039 1.039 0 0 1-.043-.204 6.321 6.321 0 0 1-.316.65 3.67 3.67 0 0 1-.435.623 2.26 2.26 0 0 1-.554.467 1.286 1.286 0 0 1-.671.183c-.258 0-.473-.063-.645-.188a1.317 1.317 0 0 1-.402-.473 2.206 2.206 0 0 1-.205-.628 3.923 3.923 0 0 1-.059-.655c0-.487.049-1.016.145-1.585.097-.57.231-1.139.403-1.708.172-.57.373-1.117.602-1.643.229-.527.48-.987.752-1.38v.01l.064-.097a7.66 7.66 0 0 1 .274-.349.468.468 0 0 1 .37-.188c.137 0 .255.06.355.177.1.118.172.242.215.37.186.037.337.082.451.135.115.054.204.12.269.199.064.079.107.17.129.274.021.104.032.217.032.338v.161c0 .058-.004.115-.01.172a1.514 1.514 0 0 0-.012.204v.215c0 .072.013.165.038.28l.08.354.076.397c.036.208.066.444.091.71.025.264.056.53.091.794l.086.79c.029.254.058.489.086.704l.258 1.59.032.182c.015.093.03.179.049.258.018.079.027.168.027.268zm-2.46-6.176a.368.368 0 0 0-.011-.07 4.905 4.905 0 0 1-.022-.102c-.164.35-.31.732-.435 1.144a13.074 13.074 0 0 0-.494 2.535c-.04.426-.059.829-.059 1.208v.097a.42.42 0 0 0 .01.086v.01c.173-.264.321-.613.447-1.047.125-.433.23-.888.317-1.364a15.422 15.422 0 0 0 .247-2.497zm7.39 3.91c0 .15-.025.304-.075.462-.05.157-.107.308-.172.45-.086.209-.19.41-.311.608a2.764 2.764 0 0 1-.42.526 1.92 1.92 0 0 1-.536.37 1.58 1.58 0 0 1-.677.14c-.444 0-.813-.11-1.107-.333a2.407 2.407 0 0 1-.698-.838 3.823 3.823 0 0 1-.36-1.106 6.82 6.82 0 0 1-.102-1.139c0-.265.01-.578.032-.94.022-.361.063-.735.124-1.122.06-.387.15-.77.269-1.15.118-.38.27-.717.456-1.015.186-.297.414-.539.682-.725.269-.186.59-.28.962-.28a2.845 2.845 0 0 1 .79.167c.146.054.275.126.386.215.11.09.166.192.166.306 0 .108-.048.19-.145.248a1.054 1.054 0 0 1-.343.123c-.133.025-.269.04-.409.043-.14.004-.252.005-.338.005h-.193c-.2.18-.366.443-.494.79a6.4 6.4 0 0 0-.301 1.112 13.107 13.107 0 0 0-.193 2.105c0 .344.026.682.08 1.015.054.333.163.647.328.94.035.065.087.138.155.22.068.083.145.124.231.124.065 0 .131-.054.199-.161.068-.108.13-.233.188-.376a3.59 3.59 0 0 0 .14-.419l.075-.3a.4.4 0 0 0 .01-.097v-.108c0-.064.002-.127.006-.188a.476.476 0 0 1 .027-.145.46.46 0 0 1 .199-.247.657.657 0 0 1 .306-.064c.107 0 .222.014.343.043.122.028.237.075.344.14a.887.887 0 0 1 .269.246c.071.1.107.219.107.355zm4.64.44c0 .215-.058.437-.176.666a2.58 2.58 0 0 1-.457.629c-.186.19-.4.345-.64.467a1.558 1.558 0 0 1-.713.183c-.337 0-.627-.067-.87-.2a2.062 2.062 0 0 1-.634-.536 2.928 2.928 0 0 1-.435-.768 5.739 5.739 0 0 1-.264-.887 7.293 7.293 0 0 1-.134-.913 10.215 10.215 0 0 1-.038-.832 9.135 9.135 0 0 1 .167-1.676 6.63 6.63 0 0 1 .252-.935 3.7 3.7 0 0 1 .403-.827c.161-.243.355-.44.58-.59.226-.15.486-.226.78-.226.228 0 .434.046.617.14.182.093.336.216.462.37a1.7 1.7 0 0 1 .29.532c.068.2.102.408.102.623 0 .28-.065.584-.194.913-.128.33-.295.648-.499.956a5.033 5.033 0 0 1-.688.833 3.215 3.215 0 0 1-.757.564c.014.128.043.316.086.563.043.248.102.493.177.736.076.244.165.455.269.634.104.18.227.269.37.269a.292.292 0 0 0 .188-.065.635.635 0 0 0 .146-.172c.042-.071.08-.15.112-.236l.092-.247.064-.15a.525.525 0 0 0 .027-.043l.016-.033c.05-.093.098-.179.145-.257a.634.634 0 0 1 .199-.205h-.011a.153.153 0 0 1 .091-.048.55.55 0 0 1 .35.07 1.194 1.194 0 0 1 .451.435c.05.09.075.177.075.263zm-2.126-4.737a3 3 0 0 0-.01-.226.569.569 0 0 0-.055-.204c-.1.122-.188.267-.263.435a3.669 3.669 0 0 0-.188.527 6.483 6.483 0 0 0-.193 1.069c.186-.223.35-.475.494-.758.143-.283.215-.564.215-.843zm5.36 6.295c0 .165-.057.274-.172.327a.9.9 0 0 1-.386.081c-.108 0-.237-.014-.387-.043a2.117 2.117 0 0 1-.387-.107.78.78 0 0 1-.311-.226.769.769 0 0 1-.135-.29 1.485 1.485 0 0 1-.037-.338 6.69 6.69 0 0 0-.01-.371 296.388 296.388 0 0 1-.312-6.574 181.797 181.797 0 0 1-.119-6.574c0-.144.022-.258.065-.344.043-.086.15-.13.322-.13.193 0 .392.047.596.14.204.094.35.233.435.42a.854.854 0 0 1 .06.29 12.622 12.622 0 0 1 .037.875c0 .147.004.26.01.338.058 1.848.123 3.689.194 5.522.072 1.833.2 3.674.387 5.521.021.251.052.498.091.742.04.243.06.49.06.74zm-41.358 129.354c0 .165-.049.272-.145.323a.75.75 0 0 1-.35.075c-.121 0-.241-.01-.36-.027a1.162 1.162 0 0 1-.332-.102.836.836 0 0 1-.269-.204.72.72 0 0 1-.155-.333c-.1-.43-.158-.85-.172-1.262a36.64 36.64 0 0 1-.022-1.273v-1.322c0-.601.025-1.226.075-1.874.05-.648.104-1.273.161-1.875a.33.33 0 0 1 .011-.075.294.294 0 0 0 .011-.064c.007-.08.018-.165.032-.258a1.04 1.04 0 0 1 .07-.253.489.489 0 0 1 .14-.188.368.368 0 0 1 .241-.075c.115 0 .224.023.328.07a.964.964 0 0 1 .274.183.83.83 0 0 1 .188.274.83.83 0 0 1 .07.333 8.322 8.322 0 0 1-.043.816 1.432 1.432 0 0 1-.022.236c.1-.2.215-.41.344-.628.129-.219.278-.42.446-.602.168-.182.354-.33.558-.445a1.37 1.37 0 0 1 .683-.172c.207 0 .38.032.515.096a.818.818 0 0 1 .328.274 1.1 1.1 0 0 1 .172.414c.032.157.048.326.048.505 0 .243-.007.488-.021.736-.015.247-.03.492-.043.735-.022.251-.04.498-.054.742-.014.243-.022.49-.022.74 0 .302.008.611.022.93a17.125 17.125 0 0 0 .161 1.697c.036.233.072.414.107.543.03.107.06.23.092.37l.096.43c.033.147.06.288.081.424.021.136.032.258.032.366 0 .157-.062.257-.188.3a1.138 1.138 0 0 1-.37.065c-.122 0-.26-.01-.414-.027a1.163 1.163 0 0 1-.414-.124.749.749 0 0 1-.295-.45 3.616 3.616 0 0 1-.091-.57l-.032-.29-.086-.677a29.176 29.176 0 0 1-.183-1.971 17.849 17.849 0 0 1-.032-1.058c0-.308.012-.605.037-.892.025-.286.052-.576.08-.87.015-.15.026-.272.033-.365.007-.093.018-.215.032-.365a7.622 7.622 0 0 0-.43.805c-.143.308-.279.629-.408.962-.128.333-.245.657-.349.972-.104.315-.184.59-.241.827l-.065.236c-.036.115-.066.23-.091.344a1.512 1.512 0 0 0-.038.322c0 .13.007.278.022.446.014.168.032.328.053.478a16.65 16.65 0 0 0 .097.688 8.139 8.139 0 0 1 .08.618c.011.118.017.223.017.316zm8.647-.086c0 .144-.036.242-.107.296a.492.492 0 0 1-.3.08c-.338 0-.58-.09-.726-.268a1.762 1.762 0 0 1-.328-.71l-.064-.305a5.005 5.005 0 0 1-.054-.307 1.008 1.008 0 0 0-.043-.193 1.039 1.039 0 0 1-.043-.204 6.321 6.321 0 0 1-.317.65c-.125.226-.27.433-.435.623-.164.19-.349.346-.553.467a1.286 1.286 0 0 1-.671.183c-.258 0-.473-.063-.645-.188a1.317 1.317 0 0 1-.403-.473 2.236 2.236 0 0 1-.204-.628 3.82 3.82 0 0 1-.059-.655c0-.487.048-1.016.145-1.585a14.676 14.676 0 0 1 1.005-3.351c.229-.527.48-.987.752-1.38v.01l.064-.097a7.66 7.66 0 0 1 .274-.349.468.468 0 0 1 .37-.188c.137 0 .255.06.355.177.1.118.172.242.215.37.186.037.336.082.451.135.115.054.204.12.269.199.064.079.107.17.128.274.022.104.033.217.033.338v.161c0 .058-.004.115-.011.172-.007.058-.01.126-.01.204v.215c0 .072.012.165.037.28l.08.354.076.397c.035.208.066.444.09.71.026.264.056.53.092.794.029.272.057.536.086.79.029.254.057.489.086.704l.258 1.59.032.182c.014.093.03.179.048.258.018.079.027.168.027.268zm-2.46-6.176a.368.368 0 0 0-.01-.07 4.906 4.906 0 0 1-.022-.102c-.165.35-.31.732-.435 1.144a13.074 13.074 0 0 0-.494 2.535c-.04.426-.06.829-.06 1.208v.097c0 .029.004.057.012.086v.01c.171-.264.32-.613.445-1.047.126-.433.231-.888.317-1.364a15.422 15.422 0 0 0 .247-2.497zm4.92 6.262c0 .165-.048.272-.145.323a.75.75 0 0 1-.349.075c-.122 0-.242-.01-.36-.027a1.162 1.162 0 0 1-.333-.102.836.836 0 0 1-.268-.204.72.72 0 0 1-.156-.333c-.1-.43-.158-.85-.172-1.262a36.64 36.64 0 0 1-.021-1.273v-1.322c0-.601.025-1.226.075-1.874.05-.648.104-1.273.16-1.875 0-.021.004-.046.012-.075a.294.294 0 0 0 .01-.064c.008-.08.018-.165.033-.258a1.04 1.04 0 0 1 .07-.253.489.489 0 0 1 .14-.188.368.368 0 0 1 .24-.075c.115 0 .225.023.328.07a.964.964 0 0 1 .274.183.83.83 0 0 1 .188.274.83.83 0 0 1 .07.333c0 .143-.005.291-.016.445a11.287 11.287 0 0 1-.064.672l-.017.247c.086-.15.185-.303.296-.457.11-.154.234-.29.37-.408a1.93 1.93 0 0 1 .446-.29c.161-.075.335-.113.521-.113s.34.03.462.092c.122.06.219.143.29.247a.985.985 0 0 1 .15.37c.03.143.044.294.044.451a7.555 7.555 0 0 1-.022.57 7.462 7.462 0 0 0-.005 1.09c.01.168.023.346.037.532.072-.237.16-.505.264-.806a11.734 11.734 0 0 1 .827-1.853c.168-.304.35-.575.548-.81.196-.237.41-.429.639-.576a1.32 1.32 0 0 1 .72-.22c.393 0 .67.115.832.344.161.23.242.523.242.88a4.931 4.931 0 0 1-.043.635 27.224 27.224 0 0 0-.107 2.385v.203c0 .502.02.974.064 1.418.043.444.129.913.257 1.408l.086.29c.03.1.063.21.102.333.04.121.074.24.103.354.028.115.053.222.075.322.021.1.032.18.032.237 0 .15-.054.25-.161.3a.779.779 0 0 1-.333.076 5.81 5.81 0 0 1-.247-.006 1.734 1.734 0 0 1-.274-.032 1.269 1.269 0 0 1-.258-.08.55.55 0 0 1-.199-.14v.01a.562.562 0 0 1-.14-.236 1.965 1.965 0 0 1-.064-.279l-.021-.097c-.1-.386-.185-.734-.253-1.042a11.392 11.392 0 0 1-.258-1.88 22.31 22.31 0 0 1-.026-1.138c0-.365.016-.738.048-1.117.032-.38.066-.752.102-1.118a1.632 1.632 0 0 1 .021-.247c-.272.423-.51.887-.714 1.391a18.494 18.494 0 0 0-.548 1.553c-.16.53-.3 1.061-.419 1.595a59.15 59.15 0 0 0-.317 1.52c0 .007.017.048.049.123.032.076.064.162.096.258.033.097.063.19.092.28.028.09.043.148.043.177 0 .165-.054.265-.161.3a1.046 1.046 0 0 1-.333.054c-.086 0-.18-.003-.28-.01a1.384 1.384 0 0 1-.564-.167.53.53 0 0 1-.198-.199c-.043-.071-.094-.241-.15-.51a28.926 28.926 0 0 1-.366-2.11l-.161-1.182c-.05-.373-.09-.699-.118-.978a6.798 6.798 0 0 1-.043-.57v-.16a9.685 9.685 0 0 0-.57 1.59c-.15.565-.265 1.12-.343 1.664l-.043.194a1.51 1.51 0 0 0-.043.322c0 .079.009.176.027.29.017.115.04.24.07.376.035.186.066.378.09.575.026.197.038.392.038.585zm11.774-1.912c0 .215-.06.437-.178.666-.118.23-.27.439-.456.629s-.4.345-.64.467c-.24.122-.477.183-.714.183-.336 0-.626-.067-.87-.2a2.062 2.062 0 0 1-.634-.536 2.928 2.928 0 0 1-.435-.768 5.74 5.74 0 0 1-.263-.887 7.293 7.293 0 0 1-.134-.913 10.215 10.215 0 0 1-.038-.832 9.135 9.135 0 0 1 .167-1.676 6.63 6.63 0 0 1 .252-.935 3.7 3.7 0 0 1 .403-.827c.161-.243.355-.44.58-.59.226-.15.485-.226.779-.226.23 0 .435.046.618.14.182.093.336.216.462.37a1.7 1.7 0 0 1 .29.532c.068.2.102.408.102.623 0 .28-.065.584-.194.913-.129.33-.295.648-.5.956a5.033 5.033 0 0 1-.687.833 3.215 3.215 0 0 1-.757.564c.014.128.043.316.086.563.043.248.102.493.177.736.075.244.165.455.269.634.104.18.227.269.37.269a.292.292 0 0 0 .188-.065.635.635 0 0 0 .145-.172c.043-.071.08-.15.113-.236.032-.086.063-.168.091-.247l.065-.15a.525.525 0 0 0 .027-.043l.016-.033c.05-.093.098-.179.145-.257a.634.634 0 0 1 .199-.205h-.011a.153.153 0 0 1 .091-.048.55.55 0 0 1 .35.07c.092.05.178.113.257.188.079.075.143.157.193.247a.54.54 0 0 1 .076.263zm-2.127-4.737c0-.072-.004-.147-.011-.226a.569.569 0 0 0-.054-.204c-.1.122-.188.267-.263.435a3.669 3.669 0 0 0-.188.527 6.483 6.483 0 0 0-.193 1.069c.186-.223.35-.475.494-.758.143-.283.215-.564.215-.843zm6.252-1.171a.28.28 0 0 1-.092.215.811.811 0 0 1-.22.145.983.983 0 0 1-.263.08 1.112 1.112 0 0 1-.467-.005 5.695 5.695 0 0 1-.237-.059 10.987 10.987 0 0 0-.225-.06 1.014 1.014 0 0 0-.548.027 1.014 1.014 0 0 0-.29.151.78.78 0 0 0-.21.236.612.612 0 0 0-.08.312c0 .172.036.342.107.51.072.169.167.339.285.51.118.172.254.346.408.521.154.176.317.353.489.532l.628.698c.212.237.401.484.57.742.168.257.306.53.413.816.108.287.161.587.161.902 0 .273-.044.516-.134.73a1.566 1.566 0 0 1-.956.898 2.13 2.13 0 0 1-.736.123c-.071 0-.18-.014-.327-.043a5.911 5.911 0 0 1-.5-.123 16.98 16.98 0 0 1-.575-.177 4.81 4.81 0 0 1-.537-.21 2.45 2.45 0 0 1-.397-.225c-.104-.076-.156-.145-.156-.21 0-.086.04-.174.118-.263.079-.09.172-.172.28-.247.107-.075.22-.138.338-.188a.792.792 0 0 1 .295-.075c.108 0 .22.025.339.075.118.05.238.107.36.172.136.071.273.136.413.193.14.057.285.086.435.086.115 0 .181-.04.199-.118.018-.079.027-.168.027-.269 0-.25-.043-.488-.13-.714a3.687 3.687 0 0 0-.332-.66 5.058 5.058 0 0 0-.473-.63 92.286 92.286 0 0 0-.537-.606c-.186-.2-.367-.401-.542-.602a5.283 5.283 0 0 1-.468-.617 3.354 3.354 0 0 1-.327-.65 2.022 2.022 0 0 1-.124-.71c0-.307.068-.585.204-.832.136-.247.314-.46.532-.639a2.4 2.4 0 0 1 .741-.413 2.5 2.5 0 0 1 .833-.145 3.567 3.567 0 0 1 .999.226c.186.07.35.157.494.257.143.1.215.211.215.333zm2.449 5.081c0 .344-.002.659-.005.945-.004.287.001.602.016.946l.193-.14.118-.075c.351-.28.657-.621.919-1.026.261-.405.478-.836.65-1.294a8.228 8.228 0 0 0 .5-3.153 2.781 2.781 0 0 0-.05-.457 1.44 1.44 0 0 0-.128-.392c-.057-.111-.14-.166-.247-.166-.172 0-.348.103-.527.311a4.114 4.114 0 0 0-.5.741 12.48 12.48 0 0 0-.688 1.558c-.002 0-.004.003-.004.01v.011c-.043.1-.088.208-.134.323a1.382 1.382 0 0 0-.092.322 4.11 4.11 0 0 0-.032.338 6.88 6.88 0 0 0-.005.602c.003.068.005.13.005.188 0 .079.002.152.006.22.003.068.005.13.005.188zm.59 9.818c0 .158-.042.265-.128.323a.61.61 0 0 1-.344.086 2.29 2.29 0 0 1-.57-.081.935.935 0 0 1-.493-.295c-.036-.05-.07-.197-.102-.44a19.866 19.866 0 0 1-.092-.855 39.11 39.11 0 0 1-.075-1.01 48.795 48.795 0 0 0-.064-.918l-.043-.57a82.104 82.104 0 0 1-.13-4.597c0-.895.017-1.774.05-2.637a570.8 570.8 0 0 1 .101-2.627l.043-1.128c0-.114.002-.227.005-.338.004-.111.017-.22.038-.328a.623.623 0 0 1 .134-.22c.054-.054.142-.08.264-.08.307 0 .533.09.676.273.143.183.226.407.247.672.23-.315.503-.566.822-.752.319-.186.686-.28 1.101-.28.351 0 .647.08.886.237.24.158.432.36.575.607.143.247.245.523.306.827.061.304.092.603.092.897 0 .566-.05 1.13-.15 1.692a8.27 8.27 0 0 1-.468 1.633 7.683 7.683 0 0 1-.8 1.493 6.2 6.2 0 0 1-1.343 1.412 2.928 2.928 0 0 1-.247.162c-.086.05-.174.093-.263.129a.66.66 0 0 1-.242.053.377.377 0 0 1-.204-.053.651.651 0 0 1-.15-.13 84.145 84.145 0 0 0 .15 3.132c.036.533.08 1.062.134 1.584.054.523.12 1.028.199 1.515.021.093.041.192.059.295.018.104.027.21.027.317zm8.509-7.165c0 .144-.036.242-.108.296a.492.492 0 0 1-.3.08c-.337 0-.579-.09-.726-.268a1.762 1.762 0 0 1-.327-.71l-.065-.305a5.005 5.005 0 0 1-.054-.307 1.008 1.008 0 0 0-.043-.193 1.039 1.039 0 0 1-.043-.204 6.321 6.321 0 0 1-.316.65 3.67 3.67 0 0 1-.435.623 2.26 2.26 0 0 1-.554.467 1.286 1.286 0 0 1-.671.183c-.258 0-.473-.063-.645-.188a1.317 1.317 0 0 1-.402-.473 2.206 2.206 0 0 1-.205-.628 3.923 3.923 0 0 1-.059-.655c0-.487.049-1.016.145-1.585.097-.57.231-1.139.403-1.708.172-.57.373-1.117.602-1.643.229-.527.48-.987.752-1.38v.01l.064-.097a7.66 7.66 0 0 1 .274-.349.468.468 0 0 1 .37-.188c.137 0 .255.06.355.177.1.118.172.242.215.37.186.037.337.082.451.135.115.054.204.12.269.199.064.079.107.17.129.274.021.104.032.217.032.338v.161c0 .058-.004.115-.01.172a1.514 1.514 0 0 0-.012.204v.215c0 .072.013.165.038.28l.08.354.076.397c.036.208.066.444.091.71.025.264.056.53.091.794l.086.79c.029.254.058.489.086.704l.258 1.59.032.182c.015.093.03.179.049.258.018.079.027.168.027.268zm-2.46-6.176a.368.368 0 0 0-.011-.07 4.906 4.906 0 0 1-.022-.102c-.164.35-.31.732-.435 1.144a13.074 13.074 0 0 0-.494 2.535c-.04.426-.059.829-.059 1.208v.097a.42.42 0 0 0 .01.086v.01c.173-.264.321-.613.447-1.047.125-.433.23-.888.317-1.364a15.422 15.422 0 0 0 .247-2.497zm7.39 3.91c0 .15-.025.304-.075.462-.05.157-.107.308-.172.45-.086.209-.19.41-.311.608a2.764 2.764 0 0 1-.42.526 1.92 1.92 0 0 1-.536.37 1.58 1.58 0 0 1-.677.14c-.444 0-.813-.11-1.107-.333a2.407 2.407 0 0 1-.698-.838 3.823 3.823 0 0 1-.36-1.106 6.82 6.82 0 0 1-.102-1.139c0-.265.01-.578.032-.94.022-.361.063-.735.124-1.122.06-.387.15-.77.269-1.15.118-.38.27-.717.456-1.015.186-.297.414-.539.682-.725.269-.186.59-.28.962-.28a2.845 2.845 0 0 1 .79.167c.146.054.275.126.386.215.11.09.166.192.166.306 0 .108-.048.19-.145.248a1.054 1.054 0 0 1-.343.123c-.133.025-.269.04-.409.043-.14.004-.252.005-.338.005h-.193c-.2.18-.366.443-.494.79a6.4 6.4 0 0 0-.301 1.112 13.107 13.107 0 0 0-.193 2.105c0 .344.026.682.08 1.015.054.333.163.647.328.94.035.065.087.138.155.22.068.083.145.124.231.124.065 0 .131-.054.199-.161.068-.108.13-.233.188-.376a3.59 3.59 0 0 0 .14-.419l.075-.3a.4.4 0 0 0 .01-.097v-.108c0-.064.002-.127.006-.188a.476.476 0 0 1 .027-.145.46.46 0 0 1 .199-.247.657.657 0 0 1 .306-.064c.107 0 .222.014.343.043.122.028.237.075.344.14a.887.887 0 0 1 .269.246c.071.1.107.219.107.355zm4.64.44c0 .215-.058.437-.176.666a2.58 2.58 0 0 1-.457.629c-.186.19-.4.345-.64.467a1.558 1.558 0 0 1-.713.183c-.337 0-.627-.067-.87-.2a2.062 2.062 0 0 1-.634-.536 2.928 2.928 0 0 1-.435-.768 5.739 5.739 0 0 1-.264-.887 7.293 7.293 0 0 1-.134-.913 10.215 10.215 0 0 1-.038-.832 9.135 9.135 0 0 1 .167-1.676 6.63 6.63 0 0 1 .252-.935 3.7 3.7 0 0 1 .403-.827c.161-.243.355-.44.58-.59.226-.15.486-.226.78-.226.228 0 .434.046.617.14.182.093.336.216.462.37a1.7 1.7 0 0 1 .29.532c.068.2.102.408.102.623 0 .28-.065.584-.194.913-.128.33-.295.648-.499.956a5.033 5.033 0 0 1-.688.833 3.215 3.215 0 0 1-.757.564c.014.128.043.316.086.563.043.248.102.493.177.736.076.244.165.455.269.634.104.18.227.269.37.269a.292.292 0 0 0 .188-.065.635.635 0 0 0 .146-.172c.042-.071.08-.15.112-.236l.092-.247.064-.15a.525.525 0 0 0 .027-.043l.016-.033c.05-.093.098-.179.145-.257a.634.634 0 0 1 .199-.205h-.011a.153.153 0 0 1 .091-.048.55.55 0 0 1 .35.07 1.194 1.194 0 0 1 .451.435c.05.09.075.177.075.263zm-2.126-4.737a3 3 0 0 0-.01-.226.569.569 0 0 0-.055-.204c-.1.122-.188.267-.263.435a3.669 3.669 0 0 0-.188.527 6.483 6.483 0 0 0-.193 1.069c.186-.223.35-.475.494-.758.143-.283.215-.564.215-.843zm7.82 5.586c0 .1-.01.204-.032.311a1.15 1.15 0 0 1-.097.29.492.492 0 0 1-.274.269 1.53 1.53 0 0 1-.44.113 3.694 3.694 0 0 1-.489.021 4.782 4.782 0 0 0-.408.006c-.3.021-.602.046-.902.075-.301.028-.602.053-.903.075-.093.186-.236.28-.43.28a.797.797 0 0 1-.214-.038 2.147 2.147 0 0 1-.51-.226.44.44 0 0 1-.156-.145.678.678 0 0 1-.188-.204.518.518 0 0 1-.07-.269c0-.164.036-.318.107-.462.072-.143.136-.29.194-.44a109.57 109.57 0 0 0 1.15-3.045c.364-1.014.719-2.04 1.063-3.078.114-.337.227-.679.338-1.026.111-.347.21-.696.295-1.047.086-.351.156-.706.21-1.064a7.19 7.19 0 0 0 .08-1.074 6.35 6.35 0 0 0-.026-.483 3.657 3.657 0 0 0-.108-.618 1.687 1.687 0 0 0-.23-.526.47.47 0 0 0-.409-.22.678.678 0 0 0-.333.096 1.848 1.848 0 0 0-.328.236 2.208 2.208 0 0 0-.279.301 4.38 4.38 0 0 0-.521.908 6.207 6.207 0 0 0-.236.65c-.022.107-.041.213-.06.317a1.363 1.363 0 0 1-.09.306.396.396 0 0 1-.124.166.347.347 0 0 1-.199.049 1.147 1.147 0 0 1-.671-.226.943.943 0 0 1-.242-.263.649.649 0 0 1-.097-.35c0-.185.038-.372.113-.558.075-.186.145-.365.21-.537a6.49 6.49 0 0 1 .472-.88c.18-.28.387-.527.623-.742.237-.215.502-.385.795-.51.294-.126.623-.188.988-.188.459 0 .838.095 1.14.284.3.19.538.436.713.736.176.301.298.641.366 1.02.068.38.102.76.102 1.14 0 .651-.079 1.348-.237 2.089a24.368 24.368 0 0 1-.59 2.24 47.456 47.456 0 0 1-.758 2.218c-.268.727-.514 1.395-.736 2.003l-.644 1.87 2.385-.323a.604.604 0 0 0 .118-.01.604.604 0 0 1 .118-.011c.165 0 .281.044.35.134a.58.58 0 0 1 .101.36z" fill="#FF00FE"/><path d="M85.457 125.93c0 .294-.014.618-.043.973a16.04 16.04 0 0 1-.129 1.1c-.057.38-.134.762-.23 1.145-.097.383-.214.75-.35 1.101-.136.35-.295.675-.478.972a3.225 3.225 0 0 1-.618.747 2.16 2.16 0 0 1-.553.349 1.55 1.55 0 0 1-.628.134.882.882 0 0 1-.247-.037.304.304 0 0 1-.194-.178 2.344 2.344 0 0 1-.467-.091.685.685 0 0 1-.381-.306.931.931 0 0 1-.054-.183 13.112 13.112 0 0 1-.043-.225 4.913 4.913 0 0 0-.043-.194 38.332 38.332 0 0 1-.424-3.867 66.949 66.949 0 0 1-.113-3.9v-.6c0-.287.002-.613.005-.978l.011-1.15c.004-.4.009-.777.016-1.128.007-.35.018-.653.032-.907.015-.255.029-.418.043-.49a.722.722 0 0 1 .118-.246c.05-.065.137-.097.258-.097.337 0 .579.106.725.317.147.211.22.47.22.779v3.668a55.712 55.712 0 0 0 .054 2.466 3.74 3.74 0 0 1 .317-.57c.126-.186.267-.354.425-.505a2.04 2.04 0 0 1 .526-.365c.193-.093.408-.14.644-.14.344 0 .622.076.833.226.211.15.372.342.483.575.111.232.187.492.226.779.04.286.059.562.059.827zm-1.482-.246c0-.144-.006-.301-.017-.473a.967.967 0 0 0-.134-.451 1.02 1.02 0 0 0-.166.16 3.394 3.394 0 0 0-.145.194l-.022.032v-.01c-.2.33-.363.712-.489 1.15-.125.436-.225.889-.3 1.358-.076.47-.127.935-.156 1.397-.029.461-.043.879-.043 1.251 0 .079.002.195.005.35.004.153.016.28.038.38.28-.236.51-.581.693-1.036.182-.455.33-.945.44-1.472.111-.526.188-1.044.231-1.552.043-.509.065-.935.065-1.278zm3.254 6.488a1.56 1.56 0 0 1-.349-.043 1.262 1.262 0 0 1-.354-.14.96.96 0 0 1-.28-.241.552.552 0 0 1-.112-.35c0-.2.009-.399.027-.596.018-.197.037-.392.059-.585v.01l.064-.72c.022-.257.04-.54.054-.848a73.605 73.605 0 0 0 .075-2.728c0-.15-.002-.303-.005-.457a20.1 20.1 0 0 1-.006-.467 8.757 8.757 0 0 1-.01-.457v-.467c0-.15.02-.274.059-.37.04-.097.152-.146.338-.146.165 0 .338.043.521.13.183.085.31.207.381.365h-.01c.035.078.062.205.08.38.018.176.03.332.038.468.122-.186.26-.383.413-.59.154-.208.32-.4.5-.575.179-.176.369-.32.57-.435.2-.115.415-.172.644-.172.3 0 .53.075.687.225.158.15.272.339.344.564.072.226.111.466.118.72.007.254.01.485.01.693v.086c0 .086 0 .17-.004.252a.743.743 0 0 1-.043.226.347.347 0 0 1-.13.166.432.432 0 0 1-.252.065 1.508 1.508 0 0 1-.725-.194 1.032 1.032 0 0 1-.285-.241.572.572 0 0 1-.128-.339v-.172a1.4 1.4 0 0 1 .01-.171c0-.036.002-.081.006-.135.003-.053.005-.105.005-.155-.23.229-.431.512-.607.848a9.175 9.175 0 0 0-.473 1.074c-.14.38-.26.761-.36 1.144-.1.384-.186.73-.257 1.037v.032a10.4 10.4 0 0 0-.043.656l-.022.666c-.007.257-.016.519-.027.784-.01.265-.03.523-.059.773a.545.545 0 0 1-.123.317c-.068.075-.181.113-.339.113zm5.662-9.206c0 .122-.027.21-.08.263-.055.054-.153.08-.296.08a3.507 3.507 0 0 1-.714-.107 1.301 1.301 0 0 1-.366-.15c-.104-.065-.156-.143-.156-.237 0-.028.011-.109.033-.241a8.61 8.61 0 0 1 .08-.425l.086-.408c.025-.122.045-.19.06-.204v.01a.23.23 0 0 1 .128-.107c.05-.014.1-.021.15-.021.065 0 .149.009.253.027.104.018.208.043.311.075.104.032.2.073.285.124.086.05.14.103.161.16a.755.755 0 0 1 .038.232c.003.096.002.184-.006.263 0 .028-.001.062-.005.102a1.081 1.081 0 0 0 0 .199c.004.035.009.071.016.107a1.688 1.688 0 0 1 .021.258zm.397 8.561c0 .165-.038.281-.113.35-.075.067-.195.102-.36.102-.086 0-.18-.011-.284-.033a1.875 1.875 0 0 1-.306-.091c-.1-.04-.194-.088-.28-.145a.621.621 0 0 1-.193-.193c-.029-.043-.054-.176-.075-.398a13.346 13.346 0 0 1-.049-.827l-.032-1.106a69.85 69.85 0 0 1-.021-1.236c-.004-.415-.006-.82-.006-1.214v-1.858c0-.072.002-.143.006-.215a.5.5 0 0 1 .043-.188.326.326 0 0 1 .118-.134.416.416 0 0 1 .23-.054c.316 0 .547.088.694.263.146.176.238.41.274.704.035.437.062.872.08 1.305a169.66 169.66 0 0 1 .086 2.503 18.013 18.013 0 0 0 .091 1.391c.008.072.018.143.033.215l.043.424c.014.14.021.285.021.435zm5.769.14a.35.35 0 0 1-.054.199.42.42 0 0 1-.134.129.599.599 0 0 1-.172.07.773.773 0 0 1-.177.02c-.086 0-.18-.01-.28-.031a1.91 1.91 0 0 1-.3-.092 1.19 1.19 0 0 1-.274-.15.647.647 0 0 1-.188-.21.898.898 0 0 1-.092-.295 10.917 10.917 0 0 1-.048-.36 4.15 4.15 0 0 1-.253.505c-.096.165-.213.31-.349.435a1.683 1.683 0 0 1-.456.301 1.368 1.368 0 0 1-.564.113c-.365 0-.66-.086-.886-.258a1.762 1.762 0 0 1-.527-.65 2.78 2.78 0 0 1-.247-.86c-.04-.31-.059-.61-.059-.896 0-.237.01-.505.032-.806.022-.3.05-.609.086-.924.036-.315.079-.621.13-.918.05-.297.103-.56.16-.79.072-.265.16-.557.263-.875.104-.319.237-.616.398-.892.161-.276.36-.51.596-.703.236-.194.52-.301.849-.323a37.51 37.51 0 0 0-.092-1.606l-.123-1.509-.108-1.192-.042-.43a5.494 5.494 0 0 1-.043-.698c0-.165.044-.28.134-.344a.584.584 0 0 1 .349-.097c.315 0 .555.047.72.14a.786.786 0 0 1 .349.376c.068.157.105.342.113.553.007.211.01.439.01.682 0 .158.018.337.054.537l.054.398.086 1.096.086 1.03.225 2.31.43 4.319.032.397c.029.294.056.598.08.913.026.315.074.627.146.935l.059.225a.927.927 0 0 1 .027.226zm-2.503-6.284c0-.079-.002-.167-.006-.263a7.42 7.42 0 0 1-.005-.274v-.29c-.05.071-.115.17-.193.295-.08.125-.14.238-.183.338a5.389 5.389 0 0 0-.312.962 17.934 17.934 0 0 0-.397 2.47c-.036.405-.054.744-.054 1.016 0 .1.002.215.006.343.003.13.016.26.037.393.022.132.054.26.097.38.043.123.1.223.172.302.107-.136.204-.346.29-.629a7.8 7.8 0 0 0 .22-.967c.06-.361.113-.743.156-1.144a32.388 32.388 0 0 0 .172-2.933zm8.733 3.953c0 .072-.02.156-.059.252a2.55 2.55 0 0 1-.15.301 6.479 6.479 0 0 1-.403.607l-.161.226-.161.279-.14.258c.007.143.018.297.032.462l.043.472a83.4 83.4 0 0 1 .21 2.256c.06.766.09 1.518.09 2.256 0 .394-.031.793-.096 1.198-.064.404-.184.77-.36 1.096a2.223 2.223 0 0 1-.725.8c-.308.208-.702.311-1.181.311-.33 0-.61-.06-.838-.182a1.524 1.524 0 0 1-.554-.489 2.115 2.115 0 0 1-.306-.714 3.67 3.67 0 0 1-.096-.849c0-.58.068-1.167.204-1.762.136-.594.313-1.181.531-1.761.219-.58.468-1.148.747-1.703a38.5 38.5 0 0 1 .849-1.595v-.049a.645.645 0 0 0-.011-.091c-.093.172-.199.35-.317.532-.118.182-.25.345-.397.489a2.099 2.099 0 0 1-.484.354 1.23 1.23 0 0 1-.585.14c-.301 0-.552-.072-.752-.215a1.57 1.57 0 0 1-.478-.548 2.555 2.555 0 0 1-.253-.73 4.052 4.052 0 0 1-.075-.752c0-.273.016-.541.048-.806.033-.265.07-.523.113-.774.072-.4.163-.836.274-1.305.111-.469.25-.934.414-1.396a9.53 9.53 0 0 1 .574-1.305c.219-.409.475-.756.769-1.042l.085-.076c.094-.093.201-.184.323-.273a.628.628 0 0 1 .376-.135.36.36 0 0 1 .21.065.58.58 0 0 1 .155.166.95.95 0 0 1 .102.22.744.744 0 0 1 .038.226.525.525 0 0 1-.097.28h.021c.437 0 .73.2.881.6a.68.68 0 0 1 .178.259c.039.1.059.207.059.322a1.806 1.806 0 0 1-.043.376 1.973 1.973 0 0 0-.033.183c-.007.057-.01.11-.01.16a31.078 31.078 0 0 0 .043 1.375c.014.266.03.525.048.78l.048.66a.898.898 0 0 1 .178-.172.396.396 0 0 1 .241-.075c.079 0 .17.029.274.086a1.455 1.455 0 0 1 .516.489.51.51 0 0 1 .091.263zm-2.954-4.426c0-.043.002-.09.005-.14a.945.945 0 0 1 .027-.16l-.075.096-.161.183c-.05.057-.097.118-.14.182-.186.272-.349.625-.489 1.058-.14.434-.256.888-.349 1.365-.093.476-.163.943-.21 1.402-.046.458-.069.852-.069 1.181 0 .165.004.33.01.494.008.165.044.326.108.484.1-.108.183-.224.247-.35.065-.125.126-.255.183-.392.157-.35.294-.759.408-1.224.115-.466.208-.945.28-1.44a23.104 23.104 0 0 0 .226-2.74zm.816 11.473c0-.487-.01-.944-.032-1.37a36.615 36.615 0 0 0-.096-1.37c-.13.308-.26.64-.393.994a12.319 12.319 0 0 0-.596 2.154 5.768 5.768 0 0 0-.096 1.02v.076c0 .164.01.342.032.531a.79.79 0 0 0 .204.468h.118a.489.489 0 0 0 .36-.145c.097-.097.177-.22.242-.37.064-.151.114-.32.15-.506a5.08 5.08 0 0 0 .075-.558c.015-.187.023-.362.027-.527.004-.164.005-.297.005-.397zm6.575-6.349c0 .215-.06.437-.178.666-.118.23-.27.439-.456.629s-.4.345-.64.467c-.24.122-.477.183-.714.183-.336 0-.626-.067-.87-.2a2.062 2.062 0 0 1-.634-.536 2.928 2.928 0 0 1-.435-.768 5.74 5.74 0 0 1-.263-.887 7.293 7.293 0 0 1-.134-.913 10.215 10.215 0 0 1-.038-.832 9.135 9.135 0 0 1 .167-1.676 6.63 6.63 0 0 1 .252-.935 3.7 3.7 0 0 1 .403-.827c.161-.243.355-.44.58-.59.226-.15.485-.226.779-.226.23 0 .435.046.618.14.182.093.336.216.462.37a1.7 1.7 0 0 1 .29.532c.068.2.102.408.102.623 0 .28-.065.584-.194.913-.129.33-.295.648-.5.956a5.033 5.033 0 0 1-.687.833 3.215 3.215 0 0 1-.757.564c.014.128.043.316.086.563.043.248.102.493.177.736.075.244.165.455.269.634.104.18.227.269.37.269a.292.292 0 0 0 .188-.065.635.635 0 0 0 .145-.172c.043-.071.08-.15.113-.236.032-.086.063-.168.091-.247l.065-.15a.525.525 0 0 0 .027-.043l.016-.033c.05-.093.098-.179.145-.257a.634.634 0 0 1 .199-.205h-.011a.153.153 0 0 1 .091-.048.55.55 0 0 1 .35.07c.092.05.178.113.257.188.079.075.143.157.193.247a.54.54 0 0 1 .076.263zm-2.127-4.737c0-.072-.004-.147-.011-.226a.569.569 0 0 0-.054-.204c-.1.122-.188.267-.263.435a3.669 3.669 0 0 0-.188.527 6.483 6.483 0 0 0-.193 1.069c.186-.223.35-.475.494-.758.143-.283.215-.564.215-.843z" fill="#0003FF"/><path d="M199.49 66.212c0 .988-.077 1.962-.23 2.922a46.54 46.54 0 0 1-.554 2.868 1.33 1.33 0 0 0-.054.236c-.043.208-.087.421-.134.64a3.04 3.04 0 0 1-.22.65c-.093.178-.22.334-.381.467a.818.818 0 0 1-.532.198.642.642 0 0 1-.247-.053 2.532 2.532 0 0 1-.28-.14.911.911 0 0 1-.322-.414 4.595 4.595 0 0 1-.182-.542l-.022-.075v.01a17.715 17.715 0 0 1-.306-1.396 143.32 143.32 0 0 1-.242-1.407l-.129-.876c-.043-.29-.093-.578-.15-.864l-.15-.634a32.041 32.041 0 0 1-.113-.468l-.113-.478a7.735 7.735 0 0 1-.086-.402 1.648 1.648 0 0 1-.032-.242c0-.136.045-.227.134-.274a.654.654 0 0 1 .306-.07c.23 0 .432.05.607.15.176.1.303.266.381.495.043.121.081.25.113.386s.06.273.08.409a34.827 34.827 0 0 1 .635 3.018l.096.548a.478.478 0 0 1 .011.086c0 .021.002.04.005.054a.706.706 0 0 1 .011.053l.016.097c.158-.76.29-1.52.398-2.283.107-.762.16-1.53.16-2.304 0-.157-.008-.311-.026-.462a42.52 42.52 0 0 0-.06-.472c-.02-.15-.04-.307-.058-.468a4.423 4.423 0 0 1-.027-.488c0-.15.047-.255.14-.312a.644.644 0 0 1 .343-.086c.165 0 .315.01.452.032a.967.967 0 0 1 .354.124c.1.06.183.147.247.258.065.11.108.256.129.435.014.164.023.342.027.531.003.19.005.371.005.543zm4.974 5.822c0 .215-.06.437-.177.666a2.58 2.58 0 0 1-.457.629c-.186.19-.4.345-.64.467a1.558 1.558 0 0 1-.713.183c-.337 0-.627-.067-.87-.2a2.062 2.062 0 0 1-.634-.536 2.928 2.928 0 0 1-.435-.768 5.74 5.74 0 0 1-.264-.887 7.293 7.293 0 0 1-.134-.913 10.215 10.215 0 0 1-.037-.832 9.135 9.135 0 0 1 .166-1.676 6.63 6.63 0 0 1 .252-.935 3.7 3.7 0 0 1 .403-.827c.161-.243.355-.44.58-.59.226-.15.486-.226.78-.226.228 0 .434.046.617.14.182.093.336.216.462.37a1.7 1.7 0 0 1 .29.532c.068.2.102.408.102.623 0 .28-.065.584-.193.913-.13.33-.296.648-.5.956a5.033 5.033 0 0 1-.687.833 3.215 3.215 0 0 1-.758.564c.015.128.043.316.086.563.043.248.102.493.177.736.076.244.165.455.269.634.104.18.227.269.37.269a.292.292 0 0 0 .189-.065.635.635 0 0 0 .145-.172c.043-.071.08-.15.112-.236l.092-.247.064-.15a.525.525 0 0 0 .027-.043l.016-.033c.05-.093.099-.179.145-.257a.634.634 0 0 1 .199-.205h-.01a.153.153 0 0 1 .09-.048.55.55 0 0 1 .35.07 1.17 1.17 0 0 1 .451.435c.05.09.075.177.075.263zm-2.127-4.737a3 3 0 0 0-.01-.226.569.569 0 0 0-.055-.204c-.1.122-.188.267-.263.435a3.67 3.67 0 0 0-.188.527 6.483 6.483 0 0 0-.193 1.069c.186-.223.35-.475.494-.758.143-.283.215-.564.215-.843zm4.995 6.434a.35.35 0 0 1-.188.323.575.575 0 0 1-.172.059c-.06.01-.12.016-.177.016a1.836 1.836 0 0 1-.58-.107 1.294 1.294 0 0 1-.274-.135.552.552 0 0 1-.188-.199c-.043-.071-.08-.205-.113-.402a8.752 8.752 0 0 1-.08-.688 22.66 22.66 0 0 1-.054-.838 98.363 98.363 0 0 1-.038-.854 32.21 32.21 0 0 1-.027-1.224c0-.502.01-.987.027-1.456.018-.469.038-.95.06-1.445a.546.546 0 0 0-.108.011.547.547 0 0 1-.107.01 3.64 3.64 0 0 1-.58.044.761.761 0 0 1-.323-.065c-.093-.043-.14-.14-.14-.29a.71.71 0 0 1 .119-.43.824.824 0 0 1 .3-.252c.122-.06.255-.104.398-.129a6.192 6.192 0 0 1 .462-.064.112.112 0 0 1 .043-.006 43.873 43.873 0 0 0 .043-.73c.007-.236.018-.489.032-.757l.043-.774c.014-.247.032-.465.054-.655.021-.19.043-.324.064-.403a.828.828 0 0 1 .124-.226c.046-.057.134-.086.263-.086.286 0 .508.094.666.28.157.186.236.415.236.687 0 .315-.009.63-.027.946-.018.315-.034.633-.048.956l-.032.548c.179-.022.358-.054.537-.097.172-.036.345-.068.52-.097.176-.028.346-.043.511-.043.143 0 .254.038.333.113.079.075.118.184.118.328 0 .157-.028.311-.086.462a.643.643 0 0 1-.3.343h.01a1.384 1.384 0 0 1-.257.06 8.886 8.886 0 0 1-.49.07c-.182.02-.36.042-.536.064a11.22 11.22 0 0 1-.392.043h-.011a68.445 68.445 0 0 0-.043 2.374c0 .551.016 1.137.048 1.756.032.62.088 1.208.167 1.767l.086.483c.028.122.053.242.075.36.021.118.032.235.032.35zm7.025-.311c0 .143-.046.247-.14.311a.59.59 0 0 1-.343.097c-.086 0-.175-.009-.269-.027a5.004 5.004 0 0 1-.268-.059 1.025 1.025 0 0 1-.35-.16.68.68 0 0 1-.268-.495 7.01 7.01 0 0 1-.032-.43 30.202 30.202 0 0 1-.086-3.223c.004-.207.009-.415.016-.622a36.512 36.512 0 0 0 .022-1.236 1.365 1.365 0 0 0-.022-.247 5.117 5.117 0 0 0-.489.908c-.14.333-.263.677-.37 1.031-.108.355-.199.709-.274 1.064a18.91 18.91 0 0 0-.188 1.015l-.032.225-.108.768a5.733 5.733 0 0 0-.053.78c0 .107.017.225.053.354.015.057.027.112.038.166.01.054.016.12.016.199 0 .172-.043.288-.129.349a.583.583 0 0 1-.344.091c-.086 0-.18-.007-.284-.021a1.671 1.671 0 0 1-.301-.07 1.455 1.455 0 0 1-.274-.124.588.588 0 0 1-.204-.193c-.043-.093-.084-.34-.124-.741-.04-.401-.075-.899-.107-1.493-.032-.595-.063-1.262-.091-2.004a350.067 350.067 0 0 1-.145-4.603c-.018-.766-.033-1.471-.043-2.116l-.027-1.681a82.332 82.332 0 0 1-.011-1.004c0-.144.02-.274.06-.393.038-.118.151-.177.337-.177.194 0 .376.045.548.134.172.09.297.228.376.414.015.029.029.145.043.35.015.203.029.465.043.783.015.319.029.684.043 1.096a566.49 566.49 0 0 1 .086 2.605c.014.444.029.86.043 1.246l.054 1.59c.086-.222.193-.455.322-.698a3.79 3.79 0 0 1 .446-.666c.168-.2.358-.366.57-.494.21-.13.445-.194.703-.194.315 0 .562.083.741.247.18.165.313.37.403.613.09.243.145.504.166.784a10.018 10.018 0 0 1 .027 1.181c-.003.136-.009.273-.016.409a17.458 17.458 0 0 0-.021.848c0 .494.01 1.001.032 1.52.021.52.075 1.03.161 1.531l.021.15a.787.787 0 0 1 .033.15c.007.058.01.112.01.162zm3.664.172c0 .165-.058.274-.172.327a.9.9 0 0 1-.387.081c-.108 0-.236-.014-.387-.043a2.117 2.117 0 0 1-.387-.107.78.78 0 0 1-.311-.226.769.769 0 0 1-.134-.29 1.485 1.485 0 0 1-.038-.338 6.69 6.69 0 0 0-.01-.371 296.388 296.388 0 0 1-.312-6.574 181.797 181.797 0 0 1-.118-6.574c0-.144.021-.258.064-.344.043-.086.15-.13.322-.13.194 0 .392.047.597.14a.846.846 0 0 1 .435.42.854.854 0 0 1 .059.29 9.53 9.53 0 0 1 .037.875c0 .147.004.26.011.338.057 1.848.122 3.689.193 5.522.072 1.833.2 3.674.387 5.521.022.251.052.498.091.742.04.243.06.49.06.74zm-10.431 97.76a18.414 18.414 0 0 1-.536 2.882 46.54 46.54 0 0 1-.85 2.794 1.33 1.33 0 0 0-.078.23c-.064.202-.131.409-.2.621-.07.213-.165.42-.287.624-.111.168-.254.31-.428.424a.818.818 0 0 1-.55.142.642.642 0 0 1-.24-.079c-.082-.044-.17-.1-.263-.168a.911.911 0 0 1-.277-.445 4.595 4.595 0 0 1-.125-.558l-.014-.077-.001.01c-.072-.475-.125-.95-.158-1.42-.034-.472-.065-.947-.094-1.425a500.4 500.4 0 0 0-.036-.885 17.443 17.443 0 0 0-.06-.875l-.083-.646c-.02-.147-.042-.305-.063-.477l-.062-.487a7.734 7.734 0 0 1-.044-.41 1.648 1.648 0 0 1-.007-.243c.015-.136.069-.222.163-.259a.654.654 0 0 1 .311-.037c.228.024.424.095.588.213.164.118.273.295.328.531.03.126.054.258.072.396.017.14.03.277.037.415a34.828 34.828 0 0 1 .315 3.068l.039.555a.462.462 0 0 1 .001.087.226.226 0 0 0 0 .054.706.706 0 0 1 .005.054l.006.098a35.8 35.8 0 0 0 .634-2.229c.187-.747.32-1.505.401-2.274.017-.157.024-.311.022-.463a42.52 42.52 0 0 0-.01-.476 15.09 15.09 0 0 1-.01-.47 4.423 4.423 0 0 1 .025-.49c.016-.15.073-.248.171-.295a.644.644 0 0 1 .351-.05c.164.018.312.044.445.08a.967.967 0 0 1 .34.16.713.713 0 0 1 .219.282c.052.117.08.266.083.446a7.871 7.871 0 0 1-.03.532c-.016.189-.033.369-.05.54zm4.337 6.31a1.45 1.45 0 0 1-.246.644 2.587 2.587 0 0 1-.52.577 2.4 2.4 0 0 1-.684.398 1.568 1.568 0 0 1-.73.107 1.795 1.795 0 0 1-.844-.289 2.062 2.062 0 0 1-.574-.6 2.928 2.928 0 0 1-.353-.81 5.74 5.74 0 0 1-.169-.908 7.293 7.293 0 0 1-.038-.922c.007-.306.024-.583.05-.832a9.135 9.135 0 0 1 .34-1.65c.094-.306.21-.607.35-.902a3.7 3.7 0 0 1 .486-.781 2.1 2.1 0 0 1 .639-.527c.24-.126.506-.174.798-.143.228.024.428.092.6.204a1.4 1.4 0 0 1 .42.416c.109.167.187.353.233.56a1.9 1.9 0 0 1 .037.63 2.53 2.53 0 0 1-.288.888 5.077 5.077 0 0 1-.597.898 5.033 5.033 0 0 1-.77.756c-.28.22-.55.38-.813.482.001.13.01.32.027.57.017.25.05.5.1.75.049.25.116.47.2.659.085.189.198.29.34.306a.292.292 0 0 0 .194-.045.635.635 0 0 0 .162-.156c.05-.066.096-.14.137-.223l.117-.236.08-.143a.525.525 0 0 0 .031-.04l.02-.03c.059-.088.116-.168.17-.241a.634.634 0 0 1 .22-.183h-.011a.153.153 0 0 1 .096-.04.55.55 0 0 1 .34.106 1.2 1.2 0 0 1 .403.48c.04.095.056.185.047.27zm-1.62-4.934c.008-.07.012-.146.013-.225a.569.569 0 0 0-.032-.209c-.113.11-.215.246-.307.405a3.67 3.67 0 0 0-.242.504 6.483 6.483 0 0 0-.304 1.043c.208-.201.398-.435.57-.701.172-.267.273-.539.302-.817zm4.295 6.922a.35.35 0 0 1-.22.3.575.575 0 0 1-.178.041 1.02 1.02 0 0 1-.178-.002 1.836 1.836 0 0 1-.566-.167 1.299 1.299 0 0 1-.258-.163.552.552 0 0 1-.166-.217c-.035-.076-.058-.213-.07-.412-.011-.2-.014-.43-.008-.693.006-.262.017-.541.034-.838.017-.298.034-.582.052-.854a32.21 32.21 0 0 1 .101-1.22c.053-.499.112-.98.18-1.445.066-.465.136-.942.209-1.43a.547.547 0 0 0-.108-.001.546.546 0 0 1-.108-.001 3.64 3.64 0 0 1-.581-.018.761.761 0 0 1-.314-.098c-.088-.052-.124-.153-.109-.303a.71.71 0 0 1 .163-.415.824.824 0 0 1 .325-.22c.128-.047.264-.076.409-.086a6.192 6.192 0 0 1 .466-.016.112.112 0 0 1 .043 0 27.892 27.892 0 0 0 .119-.723c.032-.234.07-.484.112-.75l.123-.764c.04-.244.081-.46.122-.646.041-.187.077-.318.106-.394a.828.828 0 0 1 .147-.212c.052-.052.142-.071.27-.058.285.03.496.146.634.348.137.202.191.438.163.708a16.66 16.66 0 0 1-.126.938c-.05.311-.1.626-.148.945l-.089.542a4.7 4.7 0 0 0 .544-.04c.175-.018.351-.032.529-.042.177-.01.348-.006.512.01a.463.463 0 0 1 .319.148c.07.083.098.196.083.338a1.287 1.287 0 0 1-.134.45.643.643 0 0 1-.335.31l.011.002c-.03.011-.117.022-.263.032-.145.01-.31.016-.493.018l-.54.008c-.178.003-.31.004-.395.002l-.011-.001a68.445 68.445 0 0 0-.29 2.356 33.89 33.89 0 0 0-.136 1.752c-.033.62-.04 1.211-.02 1.775l.035.49c.016.124.029.246.038.365.009.12.007.237-.005.35zm7.02.424c-.015.143-.072.241-.172.296a.59.59 0 0 1-.352.06 1.422 1.422 0 0 1-.264-.055 5.005 5.005 0 0 1-.26-.087 1.025 1.025 0 0 1-.331-.197.68.68 0 0 1-.216-.519 7.01 7.01 0 0 1 .013-.43c0-.03 0-.058.004-.087.021-.408.045-.827.072-1.256a30.202 30.202 0 0 1 .176-1.872c.025-.206.052-.412.08-.618a36.512 36.512 0 0 0 .151-1.226 1.365 1.365 0 0 0 .005-.248 5.083 5.083 0 0 0-.581.852c-.174.316-.333.645-.477.987-.144.34-.271.684-.383 1.029-.112.344-.21.674-.293.99l-.056.22-.187.753a5.733 5.733 0 0 0-.135.769c-.011.107-.006.226.016.358.009.059.015.115.02.17.005.054.004.12-.004.199-.018.171-.073.282-.165.334a.583.583 0 0 1-.351.055 2.097 2.097 0 0 1-.281-.051 1.67 1.67 0 0 1-.292-.101 1.455 1.455 0 0 1-.26-.152.588.588 0 0 1-.182-.213c-.033-.098-.049-.348-.046-.75.003-.404.02-.902.05-1.497.03-.594.069-1.262.118-2.002a350.068 350.068 0 0 1 .337-4.593c.062-.764.122-1.467.178-2.109l.15-1.675c.042-.474.074-.807.094-1 .015-.142.048-.27.1-.383.051-.114.17-.16.355-.141.192.02.369.084.53.19a.803.803 0 0 1 .331.451c.011.03.013.147.006.352-.007.204-.02.466-.039.784-.019.319-.043.683-.072 1.094a566.509 566.509 0 0 1-.187 2.6c-.032.443-.06.858-.087 1.244l-.113 1.587c.109-.212.24-.432.394-.661a3.79 3.79 0 0 1 .513-.616c.188-.182.394-.326.617-.432.224-.106.464-.146.72-.119.314.033.55.141.712.324.16.182.273.4.336.65.064.252.092.518.084.798a10.018 10.018 0 0 1-.097 1.178c-.018.135-.037.27-.058.404a17.458 17.458 0 0 0-.11.842c-.052.491-.094.996-.127 1.515a11.982 11.982 0 0 0 0 1.54l.005.151c.01.044.016.095.017.153.001.058-.001.112-.006.161zm6.145.106a1.6 1.6 0 0 1-.064.307 1.15 1.15 0 0 1-.127.278.492.492 0 0 1-.3.238 1.53 1.53 0 0 1-.45.067 3.694 3.694 0 0 1-.488-.03 4.782 4.782 0 0 0-.407-.037c-.301-.01-.603-.017-.905-.02-.302-.003-.604-.01-.905-.02-.113.176-.265.254-.457.233a.797.797 0 0 1-.21-.06 2.147 2.147 0 0 1-.484-.277.44.44 0 0 1-.14-.16.678.678 0 0 1-.165-.223.518.518 0 0 1-.041-.275c.017-.164.069-.313.155-.448s.165-.274.238-.418a114.578 114.578 0 0 0 2.841-5.858c.149-.323.297-.65.444-.985.146-.334.28-.67.403-1.01.122-.34.229-.686.32-1.036.09-.35.154-.704.192-1.06.012-.114.02-.275.024-.484a3.657 3.657 0 0 0-.043-.625 1.687 1.687 0 0 0-.174-.548.47.47 0 0 0-.383-.262.678.678 0 0 0-.342.062c-.12.052-.237.119-.35.2a2.208 2.208 0 0 0-.31.27 4.38 4.38 0 0 0-.613.848 6.207 6.207 0 0 0-.302.622c-.033.105-.063.208-.092.31-.029.1-.07.2-.123.294a.396.396 0 0 1-.14.153.347.347 0 0 1-.203.027 1.147 1.147 0 0 1-.644-.295.943.943 0 0 1-.213-.286.649.649 0 0 1-.06-.358c.02-.185.077-.366.171-.543.094-.178.182-.348.264-.513a6.49 6.49 0 0 1 .563-.826c.207-.26.44-.483.697-.672.257-.19.539-.33.844-.425a2.512 2.512 0 0 1 1.002-.083c.456.048.824.182 1.103.402.28.22.49.489.633.806.143.318.229.669.257 1.054a6.41 6.41 0 0 1-.018 1.143 10.079 10.079 0 0 1-.453 2.053c-.234.72-.508 1.442-.822 2.166a47.456 47.456 0 0 1-.985 2.126 512.83 512.83 0 0 0-.941 1.916l-.836 1.792 2.405-.072a.604.604 0 0 0 .119.002.604.604 0 0 1 .118.002c.164.017.275.074.333.17a.58.58 0 0 1 .064.368z" fill="#9451B3"/><path d="M104.17 89.256c.207.208.426.447.656.718.23.27.46.56.688.87.228.309.443.633.645.972.203.34.38.681.532 1.025a6.1 6.1 0 0 1 .35 1.026c.08.34.11.66.09.965a2.16 2.16 0 0 1-.144.638 1.55 1.55 0 0 1-.35.539.882.882 0 0 1-.2.148.304.304 0 0 1-.262.011c-.122.102-.254.19-.395.266a.685.685 0 0 1-.487.053.931.931 0 0 1-.167-.09l-.19-.13a4.911 4.911 0 0 0-.167-.106 38.332 38.332 0 0 1-3.034-2.435 66.949 66.949 0 0 1-2.837-2.677l-.426-.426a100.82 100.82 0 0 1-.687-.695l-.805-.82a98.614 98.614 0 0 1-.786-.809c-.243-.253-.45-.475-.62-.665a4.633 4.633 0 0 1-.315-.376.722.722 0 0 1-.09-.258c-.011-.08.027-.164.113-.25.238-.238.484-.335.737-.29.253.046.489.178.706.396l2.594 2.594a55.713 55.713 0 0 0 1.782 1.705 3.74 3.74 0 0 1-.179-.627 3.048 3.048 0 0 1-.057-.657 2.04 2.04 0 0 1 .114-.63c.07-.203.19-.387.357-.555.243-.243.492-.386.748-.429.256-.043.505-.021.748.065.243.086.48.216.71.391.231.175.44.356.627.543zm-1.224.874a7.625 7.625 0 0 0-.345-.323.967.967 0 0 0-.414-.224 1.02 1.02 0 0 0-.004.231c.008.074.019.154.034.24l.008.038-.008-.008c.091.375.247.761.467 1.158.22.398.47.79.748 1.174.279.385.571.75.878 1.098.306.347.591.652.854.915.056.056.14.137.251.243.111.106.21.187.296.243.03-.365-.05-.772-.243-1.223a8.836 8.836 0 0 0-.73-1.352c-.293-.45-.604-.87-.933-1.26a15.63 15.63 0 0 0-.859-.95zm6.89 2.286a1.573 1.573 0 0 1-.277.217 1.262 1.262 0 0 1-.35.151.96.96 0 0 1-.368.027.552.552 0 0 1-.327-.167 6.582 6.582 0 0 1-.402-.44 35.739 35.739 0 0 1-.373-.456l.008.007-.463-.554c-.168-.198-.355-.41-.563-.638a73.618 73.618 0 0 0-1.876-1.983 19.637 19.637 0 0 0-.326-.319 20.098 20.098 0 0 1-.335-.327 8.758 8.758 0 0 1-.33-.315l-.33-.33a.992.992 0 0 1-.22-.304c-.041-.096.004-.21.136-.342.117-.116.27-.209.46-.277a.746.746 0 0 1 .528-.011l-.008.007c.08.03.19.101.327.213.136.111.255.212.357.304a12.299 12.299 0 0 1-.126-.71 4.832 4.832 0 0 1-.053-.76c.003-.25.034-.488.095-.71.06-.223.172-.416.334-.578.213-.212.428-.321.646-.326.218-.005.432.047.642.155.21.11.407.251.592.426s.35.335.498.482l.06.06c.061.062.12.122.175.183a.757.757 0 0 1 .13.19c.03.066.039.136.026.209a.432.432 0 0 1-.133.224 1.508 1.508 0 0 1-.65.376 1.032 1.032 0 0 1-.372.03.572.572 0 0 1-.33-.148l-.122-.121a1.384 1.384 0 0 1-.114-.13 2.082 2.082 0 0 1-.09-.098 2.344 2.344 0 0 0-.107-.114c0 .324.057.667.17 1.03.115.361.257.726.426 1.093.17.367.355.722.555 1.063.2.342.383.647.55.916l.023.023c.142.172.286.336.433.493l.456.486c.177.188.356.379.535.574.18.195.349.391.506.589.086.106.131.21.136.311.005.101-.048.208-.16.319zm-.099-11.903c.07.071.122.152.152.243.056.117.097.217.125.3a.507.507 0 0 1 .027.232.533.533 0 0 1-.084.213c-.045.07-.114.152-.205.243l-2.066 2.066a4.076 4.076 0 0 1-.137.129c-.055.05-.116.096-.182.137a.53.53 0 0 1-.197.076c-.066.01-.127-.013-.183-.069a.655.655 0 0 1-.193-.452.81.81 0 0 1 .133-.49 3.48 3.48 0 0 1 .277-.33 5.48 5.48 0 0 0 .285-.323c.273-.304.545-.609.816-.915.271-.306.556-.609.855-.908a3.69 3.69 0 0 1 .121-.114.665.665 0 0 1 .145-.098.26.26 0 0 1 .155-.027.28.28 0 0 1 .156.087zm3.623-2.879a18.414 18.414 0 0 1 1.903 2.23 46.54 46.54 0 0 1 1.637 2.42c.046.085.089.154.13.204l.356.547c.122.188.223.393.304.615.06.193.08.393.06.6a.818.818 0 0 1-.235.517.642.642 0 0 1-.212.137 2.532 2.532 0 0 1-.297.098.911.911 0 0 1-.52-.064 4.595 4.595 0 0 1-.513-.255l-.068-.038.007.008a17.98 17.98 0 0 1-1.203-.77c-.388-.272-.777-.547-1.166-.825l-.71-.528a17.443 17.443 0 0 0-.718-.505l-.555-.342c-.127-.076-.263-.16-.41-.25l-.418-.259a7.735 7.735 0 0 1-.346-.224 1.648 1.648 0 0 1-.193-.148c-.096-.096-.13-.192-.099-.289a.654.654 0 0 1 .167-.266c.162-.162.34-.27.536-.322.195-.054.401-.027.619.08.116.055.234.12.353.193.119.074.234.15.346.232a34.829 34.829 0 0 1 2.582 1.686l.456.32c.03.02.053.037.068.052.015.015.03.027.042.034a.706.706 0 0 1 .046.03l.08.058a35.8 35.8 0 0 0-1.334-1.895 16.501 16.501 0 0 0-1.515-1.744 3.905 3.905 0 0 0-.346-.307 42.52 42.52 0 0 0-.376-.293 15.09 15.09 0 0 1-.372-.288 4.423 4.423 0 0 1-.364-.327c-.107-.106-.147-.213-.122-.319a.644.644 0 0 1 .182-.304c.117-.116.23-.215.342-.296a.967.967 0 0 1 .338-.163.713.713 0 0 1 .357.007c.124.033.257.105.399.217.126.106.258.225.395.357.137.131.266.258.387.38zm7.634.6c.152.152.267.351.346.597.078.245.119.501.121.767.003.266-.038.527-.121.782a1.568 1.568 0 0 1-.376.635c-.238.238-.49.396-.756.474a2.062 2.062 0 0 1-.828.069 2.928 2.928 0 0 1-.85-.236 5.74 5.74 0 0 1-.814-.44 7.293 7.293 0 0 1-.74-.551 10.215 10.215 0 0 1-.615-.562 9.135 9.135 0 0 1-1.068-1.303 6.683 6.683 0 0 1-.482-.84 3.7 3.7 0 0 1-.3-.869 2.075 2.075 0 0 1-.008-.828c.054-.266.184-.502.392-.71a1.34 1.34 0 0 1 .535-.338c.195-.063.391-.085.589-.065a1.7 1.7 0 0 1 .58.171c.19.094.362.217.514.369.197.197.367.458.509.782.141.324.249.667.322 1.03.074.361.108.72.103 1.074-.005.355-.05.666-.137.934.101.081.255.194.46.338.205.145.42.276.645.395.226.12.438.206.638.259.2.053.351.029.452-.072a.294.294 0 0 0 .088-.179.635.635 0 0 0-.02-.224 1.443 1.443 0 0 0-.087-.247 26.375 26.375 0 0 0-.11-.24l-.06-.151a.524.524 0 0 0-.012-.05l-.011-.034a7.466 7.466 0 0 1-.08-.285.634.634 0 0 1-.004-.284l-.007.007c0-.04.01-.073.03-.098a.55.55 0 0 1 .296-.197 1.146 1.146 0 0 1 .627-.012.537.537 0 0 1 .24.133zm-4.854-1.845a2.495 2.495 0 0 0-.167-.152.569.569 0 0 0-.182-.107c.015.157.056.322.121.494.066.172.146.34.24.505a6.483 6.483 0 0 0 .62.893 3.947 3.947 0 0 0-.187-.885 1.854 1.854 0 0 0-.445-.748zm8.082 1.018a.35.35 0 0 1 .095.36.575.575 0 0 1-.08.164 1.02 1.02 0 0 1-.113.136 1.836 1.836 0 0 1-.486.334 1.299 1.299 0 0 1-.29.1.552.552 0 0 1-.273-.008c-.08-.02-.202-.089-.364-.205a8.752 8.752 0 0 1-.543-.43c-.2-.17-.41-.354-.63-.554-.221-.2-.431-.392-.631-.577a32.217 32.217 0 0 1-.885-.847 38.19 38.19 0 0 1-1.01-1.048c-.32-.345-.646-.7-.98-1.064a.546.546 0 0 0-.069.084.547.547 0 0 1-.068.083 3.64 3.64 0 0 1-.38.44.761.761 0 0 1-.273.183c-.096.036-.198 0-.304-.106a.71.71 0 0 1-.22-.388.824.824 0 0 1 .034-.39c.043-.13.106-.254.19-.373a6.192 6.192 0 0 1 .28-.372.112.112 0 0 1 .027-.034 43.873 43.873 0 0 0-.486-.547 33.072 33.072 0 0 1-.513-.559l-.516-.577a12.143 12.143 0 0 1-.425-.501 3.038 3.038 0 0 1-.24-.33.829.829 0 0 1-.072-.247c-.007-.074.034-.156.126-.247.202-.203.425-.294.668-.274.243.02.46.127.653.32.223.222.44.451.65.687.21.235.424.472.641.71l.365.41c.111-.142.215-.291.312-.448.096-.147.196-.293.3-.437.103-.144.214-.275.33-.391a.463.463 0 0 1 .315-.156c.11-.002.214.047.315.148.112.112.2.24.266.388a.643.643 0 0 1 .03.456l.008-.008c-.01.03-.057.105-.14.224-.084.119-.183.25-.296.395l-.335.425c-.109.14-.19.242-.247.308l-.007.008a68.445 68.445 0 0 0 1.648 1.709c.39.39.815.792 1.276 1.207.461.416.917.793 1.367 1.132l.403.281c.106.066.209.133.308.202.098.068.188.143.27.224zm4.748-5.188c.101.1.142.207.121.319a.59.59 0 0 1-.174.311c-.061.06-.13.118-.21.171a5.004 5.004 0 0 1-.23.148c-.138.076-.258.12-.362.133a.68.68 0 0 1-.54-.16 7.01 7.01 0 0 1-.326-.28 30.202 30.202 0 0 1-2.34-2.218c-.144-.15-.287-.3-.428-.452a36.512 36.512 0 0 0-.859-.89 1.365 1.365 0 0 0-.19-.159c.061.324.16.654.297.988.136.334.292.664.467.991.174.327.36.642.558.946.198.304.393.587.585.85l.137.183c.152.202.307.409.467.619.16.21.33.406.513.588.076.076.172.147.288.213.05.03.099.06.145.091.045.03.096.074.151.13.122.121.174.234.156.337a.583.583 0 0 1-.178.308c-.061.06-.133.123-.217.186-.083.063-.17.118-.262.164a1.455 1.455 0 0 1-.28.106.588.588 0 0 1-.282.007c-.096-.035-.3-.18-.611-.436a35.217 35.217 0 0 1-1.132-.98c-.443-.398-.937-.848-1.481-1.352a349.995 349.995 0 0 1-3.358-3.153 322.698 322.698 0 0 1-2.734-2.636 77.677 77.677 0 0 1-.718-.702 1.234 1.234 0 0 1-.236-.319c-.055-.111-.017-.233.114-.365a1.17 1.17 0 0 1 .483-.292.803.803 0 0 1 .558.027c.03.01.123.082.277.216.155.134.35.309.585.524.236.215.504.464.805.745a566.49 566.49 0 0 1 1.903 1.78c.324.305.628.588.912.852l1.162 1.086a6.566 6.566 0 0 1-.266-.722 3.79 3.79 0 0 1-.156-.786 2.318 2.318 0 0 1 .053-.752c.059-.24.179-.452.361-.634.223-.223.456-.34.699-.35.243-.01.482.04.718.148.235.11.46.255.672.437a10.018 10.018 0 0 1 .855.817c.093.099.186.199.277.3a17.453 17.453 0 0 0 .585.615c.349.35.715.7 1.097 1.052.383.352.781.675 1.197.969l.121.09a.937.937 0 0 1 .25.191zm2.712-2.469c.116.116.153.234.11.353a.9.9 0 0 1-.217.33 2.115 2.115 0 0 1-.304.244 2.117 2.117 0 0 1-.35.197.78.78 0 0 1-.379.06.769.769 0 0 1-.3-.11 1.485 1.485 0 0 1-.266-.212 6.69 6.69 0 0 0-.27-.254 296.382 296.382 0 0 1-4.868-4.429 181.794 181.794 0 0 1-4.733-4.565.774.774 0 0 1-.197-.289c-.03-.09.015-.197.137-.319.136-.136.31-.244.52-.322a.843.843 0 0 1 .604-.012.86.86 0 0 1 .247.164 10.533 10.533 0 0 1 .645.592c.104.104.186.181.247.232a686.762 686.762 0 0 0 4.041 3.767 90.15 90.15 0 0 0 4.178 3.631c.192.162.389.315.589.46.2.144.388.305.566.482zM109.5 156.894a12.15 12.15 0 0 1-.509.83 16.04 16.04 0 0 1-.647.9c-.234.304-.486.6-.756.889-.27.288-.55.553-.84.794-.289.24-.585.447-.889.618-.304.172-.604.29-.902.354a2.16 2.16 0 0 1-.653.037 1.55 1.55 0 0 1-.615-.187.882.882 0 0 1-.198-.153.304.304 0 0 1-.083-.249 2.344 2.344 0 0 1-.364-.306.685.685 0 0 1-.185-.453.931.931 0 0 1 .041-.186c.022-.07.046-.142.072-.218a4.913 4.913 0 0 0 .056-.19 38.333 38.333 0 0 1 1.504-3.588 66.948 66.948 0 0 1 1.792-3.465l.291-.526c.14-.25.299-.535.479-.852l.567-1c.197-.35.384-.676.56-.98.177-.303.333-.562.469-.778.136-.215.227-.35.274-.406a.722.722 0 0 1 .223-.159c.075-.032.166-.019.273.04.294.164.454.373.48.63.026.255-.035.518-.185.787l-1.778 3.209a55.709 55.709 0 0 0-1.148 2.182 3.74 3.74 0 0 1 .553-.345c.2-.102.405-.18.616-.235a2.04 2.04 0 0 1 .637-.065c.214.013.425.076.632.19.3.167.506.368.618.602.112.234.16.48.144.737a2.63 2.63 0 0 1-.18.79c-.104.27-.22.52-.35.752zm-1.177-.935c.07-.125.141-.265.215-.42a.967.967 0 0 0 .101-.46 1.02 1.02 0 0 0-.223.06c-.069.027-.142.06-.22.099l-.035.017.005-.01a4.731 4.731 0 0 0-.985.77c-.321.32-.629.668-.922 1.042-.293.374-.564.756-.813 1.146a16.328 16.328 0 0 0-.809 1.382 2.103 2.103 0 0 0-.152.351c.359-.071.729-.261 1.109-.57.38-.31.746-.668 1.098-1.074.353-.407.67-.822.955-1.246.284-.424.51-.786.676-1.087zm-.299 7.253a1.573 1.573 0 0 1-.284-.207 1.262 1.262 0 0 1-.243-.294.96.96 0 0 1-.127-.346.552.552 0 0 1 .07-.36 6.86 6.86 0 0 1 .313-.509c.112-.163.223-.325.336-.483l-.005.01.405-.6c.144-.214.297-.453.458-.715a73.6 73.6 0 0 0 1.389-2.35c.073-.132.145-.266.217-.402.071-.137.145-.274.222-.411.06-.123.13-.258.211-.405l.227-.409a.992.992 0 0 1 .231-.295c.082-.066.204-.053.367.037.144.08.275.202.393.365.118.164.17.332.156.505l-.01-.006c-.006.087-.044.21-.114.373a8.811 8.811 0 0 1-.193.427c.197-.104.413-.21.648-.316.235-.107.474-.194.715-.26.242-.067.478-.102.71-.105.23-.003.446.05.646.162.263.146.427.323.492.53.065.208.074.428.028.66a2.61 2.61 0 0 1-.246.687c-.117.226-.226.43-.327.611l-.041.076a5.812 5.812 0 0 1-.127.218.743.743 0 0 1-.147.176.347.347 0 0 1-.194.083.432.432 0 0 1-.252-.066 1.508 1.508 0 0 1-.54-.52 1.032 1.032 0 0 1-.132-.35.572.572 0 0 1 .051-.358l.084-.15c.027-.05.058-.099.092-.146.018-.03.041-.07.07-.114.03-.046.056-.09.08-.134-.311.09-.625.239-.942.448-.317.21-.628.446-.934.71-.306.265-.596.54-.87.826a39.29 39.29 0 0 0-.728.782l-.015.028a10.4 10.4 0 0 0-.355.553l-.342.572c-.131.222-.266.446-.404.673-.138.226-.28.442-.426.647a.545.545 0 0 1-.262.218c-.096.032-.213.01-.35-.066zm11.415-3.376a.616.616 0 0 1-.192.214 2.687 2.687 0 0 1-.254.203.505.505 0 0 1-.215.09.533.533 0 0 1-.228-.023 1.535 1.535 0 0 1-.29-.13l-2.555-1.416a4.076 4.076 0 0 1-.162-.096 1.223 1.223 0 0 1-.182-.138.53.53 0 0 1-.127-.169c-.028-.06-.023-.125.015-.194a.655.655 0 0 1 .381-.31.81.81 0 0 1 .508-.008c.135.05.267.11.394.176.127.066.256.128.389.185.367.179.735.356 1.104.532.37.176.739.367 1.109.571.043.025.091.053.143.086.051.032.096.07.134.111a.26.26 0 0 1 .069.143.28.28 0 0 1-.041.173zm3.766 2.69a18.414 18.414 0 0 1-1.619 2.443 46.54 46.54 0 0 1-1.874 2.24 1.33 1.33 0 0 0-.162.181c-.138.161-.28.326-.427.494a3.026 3.026 0 0 1-.508.462 1.492 1.492 0 0 1-.56.224.818.818 0 0 1-.561-.084.642.642 0 0 1-.19-.167 2.532 2.532 0 0 1-.177-.257.911.911 0 0 1-.081-.518 4.56 4.56 0 0 1 .103-.563l.018-.077-.005.01c.119-.466.255-.923.409-1.37.153-.447.31-.896.47-1.348.105-.278.21-.554.312-.828.103-.275.2-.551.288-.83l.176-.627c.038-.142.08-.297.128-.463l.133-.473c.041-.149.081-.28.12-.394.038-.114.068-.19.089-.227.066-.119.15-.177.25-.174a.64.64 0 0 1 .302.087c.2.111.353.253.458.426.105.173.136.378.094.617a3.778 3.778 0 0 1-.09.393c-.037.134-.08.266-.127.396a34.826 34.826 0 0 1-.909 2.947l-.18.526a.462.462 0 0 1-.033.08.226.226 0 0 0-.021.05.705.705 0 0 1-.017.052l-.033.093a35.8 35.8 0 0 0 1.454-1.804 16.43 16.43 0 0 0 1.259-1.937c.076-.138.143-.277.2-.417l.177-.442c.055-.142.113-.288.175-.438.063-.15.134-.296.214-.44.073-.132.164-.2.273-.205a.644.644 0 0 1 .342.092c.144.08.27.162.38.246a.967.967 0 0 1 .25.28.713.713 0 0 1 .09.346 1.13 1.13 0 0 1-.098.443c-.067.15-.145.31-.234.478-.089.167-.175.327-.258.477zm1.527 7.503a1.45 1.45 0 0 1-.478.497 2.561 2.561 0 0 1-.704.328 2.429 2.429 0 0 1-.785.1 1.568 1.568 0 0 1-.714-.188 1.795 1.795 0 0 1-.664-.595 2.062 2.062 0 0 1-.294-.777 2.928 2.928 0 0 1-.008-.883 5.74 5.74 0 0 1 .199-.903c.091-.297.2-.585.325-.863.126-.279.25-.527.371-.747a9.135 9.135 0 0 1 .958-1.385c.206-.246.43-.477.674-.695a3.7 3.7 0 0 1 .753-.528c.26-.135.524-.213.794-.235.27-.022.534.038.79.18.201.111.359.252.473.422.115.17.19.352.224.548.035.195.034.397-.004.605a1.926 1.926 0 0 1-.212.595 2.55 2.55 0 0 1-.612.705 5.077 5.077 0 0 1-.9.594c-.328.17-.663.302-1.006.394a3.215 3.215 0 0 1-.935.127c-.05.12-.116.298-.199.534-.082.237-.15.48-.201.73-.053.25-.077.478-.073.684.004.207.069.346.194.415a.292.292 0 0 0 .196.035.635.635 0 0 0 .21-.08c.072-.042.143-.093.213-.152l.2-.172.13-.1a.525.525 0 0 0 .044-.025l.03-.02c.088-.057.172-.11.251-.155a.634.634 0 0 1 .273-.083l-.01-.005a.153.153 0 0 1 .104.002.55.55 0 0 1 .271.23c.057.09.102.186.135.29.032.104.048.207.049.31 0 .102-.02.191-.062.266zm.436-5.174c.035-.063.069-.13.1-.203a.569.569 0 0 0 .052-.204 1.898 1.898 0 0 0-.44.253c-.148.11-.288.234-.42.369a6.483 6.483 0 0 0-.687.841c.27-.104.536-.245.799-.423.262-.178.461-.389.596-.633zm1.25 8.05a.35.35 0 0 1-.32.19.575.575 0 0 1-.18-.032 1.02 1.02 0 0 1-.163-.071 1.836 1.836 0 0 1-.455-.375 1.299 1.299 0 0 1-.174-.25.552.552 0 0 1-.069-.266c-.002-.083.03-.219.097-.407.067-.188.155-.401.263-.64.108-.24.228-.492.36-.759.13-.267.258-.522.38-.765a32.216 32.216 0 0 1 .57-1.084c.244-.439.487-.859.73-1.26.243-.402.494-.814.752-1.235a.547.547 0 0 0-.1-.043.546.546 0 0 1-.098-.043 3.64 3.64 0 0 1-.529-.243.761.761 0 0 1-.25-.213c-.06-.083-.055-.19.018-.321a.71.71 0 0 1 .312-.319.824.824 0 0 1 .385-.075c.136.006.273.033.41.08a6.192 6.192 0 0 1 .436.168c.008 0 .021.005.04.016a43.875 43.875 0 0 0 .392-.618c.12-.203.252-.42.395-.647l.413-.656c.132-.209.253-.391.364-.547a3.02 3.02 0 0 1 .252-.32.828.828 0 0 1 .217-.138c.069-.028.16-.01.272.052.25.14.4.328.447.567.048.24.006.478-.126.716-.153.276-.314.547-.482.814-.169.267-.337.538-.506.813l-.294.463c.167.068.34.127.517.176.168.052.335.108.502.168.168.06.323.13.468.21.125.07.204.156.236.26.033.104.014.219-.055.344a1.287 1.287 0 0 1-.3.362.643.643 0 0 1-.43.155l.01.005a1.384 1.384 0 0 1-.254-.073 8.886 8.886 0 0 1-.461-.176l-.501-.204a11.22 11.22 0 0 1-.364-.152l-.01-.006a68.435 68.435 0 0 0-1.188 2.056 33.89 33.89 0 0 0-.81 1.56 20.481 20.481 0 0 0-.71 1.626l-.16.464c-.033.12-.07.238-.108.351a2.024 2.024 0 0 1-.141.321zm6.295 3.133c-.07.125-.16.193-.273.205a.59.59 0 0 1-.347-.082 1.422 1.422 0 0 1-.222-.154 5.005 5.005 0 0 1-.206-.182 1.025 1.025 0 0 1-.228-.31.68.68 0 0 1 .005-.563 7.011 7.011 0 0 1 .18-.391 30.204 30.204 0 0 1 1.487-2.86c.104-.18.21-.36.317-.537a36.492 36.492 0 0 0 .617-1.07 1.365 1.365 0 0 0 .101-.227 5.083 5.083 0 0 0-.867.557 10.51 10.51 0 0 0-.824.722c-.266.258-.518.524-.756.798-.237.273-.456.539-.656.796l-.138.182c-.153.202-.308.408-.466.62-.158.21-.3.43-.425.655a1.333 1.333 0 0 0-.124.336 3.59 3.59 0 0 1-.048.164 1.035 1.035 0 0 1-.083.181c-.083.15-.177.232-.282.243a.583.583 0 0 1-.345-.087 2.097 2.097 0 0 1-.238-.156 1.671 1.671 0 0 1-.23-.207 1.455 1.455 0 0 1-.179-.241.588.588 0 0 1-.085-.268c.008-.102.092-.339.252-.708.16-.37.37-.823.63-1.358.26-.536.557-1.135.89-1.797a349.997 349.997 0 0 1 2.106-4.096c.356-.679.685-1.303.988-1.872l.792-1.483c.224-.42.383-.715.477-.884.07-.125.15-.23.242-.314.092-.084.219-.081.382.009.169.094.307.221.414.383a.8.8 0 0 1 .128.544c-.001.032-.045.14-.131.326a34.86 34.86 0 0 1-.343.707c-.142.285-.307.612-.494.979a566.504 566.504 0 0 1-1.187 2.32c-.203.395-.392.765-.567 1.11l-.724 1.417c.183-.152.39-.304.62-.454.231-.15.469-.273.713-.367a2.36 2.36 0 0 1 .738-.156c.247-.01.484.047.709.172.276.153.452.345.529.576.076.23.095.474.055.73-.04.257-.118.512-.235.767a10.017 10.017 0 0 1-.549 1.047c-.069.117-.14.233-.212.349a17.463 17.463 0 0 0-.43.732c-.24.432-.476.88-.709 1.345-.233.464-.433.936-.601 1.417l-.054.142a.787.787 0 0 1-.045.147 1.303 1.303 0 0 1-.069.146zm5.616 2.499a1.588 1.588 0 0 1-.18.256 1.15 1.15 0 0 1-.224.207.492.492 0 0 1-.37.102 1.53 1.53 0 0 1-.44-.115 3.694 3.694 0 0 1-.438-.218 4.782 4.782 0 0 0-.36-.193c-.273-.127-.548-.25-.825-.372-.277-.12-.552-.244-.826-.371-.172.117-.342.13-.511.036a.797.797 0 0 1-.17-.137 2.147 2.147 0 0 1-.337-.445.44.44 0 0 1-.066-.202.678.678 0 0 1-.065-.27.518.518 0 0 1 .07-.269c.079-.144.185-.261.317-.352.132-.09.26-.187.383-.291.843-.695 1.67-1.397 2.481-2.107.811-.709 1.618-1.434 2.423-2.176.263-.239.527-.483.793-.733.265-.25.52-.507.766-.773.245-.265.478-.541.699-.828.22-.287.417-.588.591-.9.056-.101.126-.246.211-.437.085-.19.153-.387.205-.592.052-.204.07-.395.054-.572a.47.47 0 0 0-.25-.39.678.678 0 0 0-.339-.078 1.851 1.851 0 0 0-.4.048 2.208 2.208 0 0 0-.391.128 4.38 4.38 0 0 0-.896.541 6.207 6.207 0 0 0-.521.454c-.071.084-.14.166-.206.249a1.363 1.363 0 0 1-.228.223.396.396 0 0 1-.189.086.347.347 0 0 1-.197-.054 1.147 1.147 0 0 1-.478-.523.943.943 0 0 1-.084-.347.649.649 0 0 1 .085-.353c.09-.163.213-.307.37-.434.155-.126.303-.249.443-.368a6.49 6.49 0 0 1 .84-.541c.292-.157.594-.273.905-.346a2.79 2.79 0 0 1 .942-.061c.318.033.636.138.956.315.4.222.687.489.858.8.17.312.26.642.268.99.007.349-.051.705-.175 1.07a6.442 6.442 0 0 1-.463 1.046c-.316.57-.723 1.14-1.22 1.712a24.368 24.368 0 0 1-1.603 1.673 47.456 47.456 0 0 1-1.737 1.573c-.588.505-1.126.97-1.615 1.395l-1.47 1.323 2.242.874c.038.02.074.037.108.048a.604.604 0 0 1 .11.048c.143.08.223.175.24.286a.58.58 0 0 1-.086.365z" fill="#5153B3"/><text font-family="JustAnotherHand-Regular, Just Another Hand" font-size="22" fill="#ABBE98"><tspan x="38" y="212">(machine)</tspan></text></g></svg>